<svg version="1.1" viewBox="0.0 0.0 600.0 371.0" fill="none" stroke="none" stroke-linecap="square" stroke-miterlimit="10" width="600" height="371" xmlns:xlink="http://www.w3.org/1999/xlink" xmlns="http://www.w3.org/2000/svg"><path fill="#ffffff" d="M0 0L600.0 0L600.0 371.0L0 371.0L0 0Z" fill-rule="nonzero"/><path stroke="#333333" stroke-width="1.0" stroke-linecap="butt" d="M95.5 329.5L581.5 329.5" fill-rule="nonzero"/><path stroke="#cccccc" stroke-width="1.0" stroke-linecap="butt" d="M95.5 275.5L581.5 275.5" fill-rule="nonzero"/><path stroke="#cccccc" stroke-width="1.0" stroke-linecap="butt" d="M95.5 222.5L581.5 222.5" fill-rule="nonzero"/><path stroke="#cccccc" stroke-width="1.0" stroke-linecap="butt" d="M95.5 168.5L581.5 168.5" fill-rule="nonzero"/><path stroke="#cccccc" stroke-width="1.0" stroke-linecap="butt" d="M95.5 115.5L581.5 115.5" fill-rule="nonzero"/><path stroke="#cccccc" stroke-width="1.0" stroke-linecap="butt" d="M95.5 61.5L581.5 61.5" fill-rule="nonzero"/><path stroke="#e6e6e6" stroke-width="1.0" stroke-linecap="butt" d="M95.5 311.5L581.5 311.5" fill-rule="nonzero"/><path stroke="#e6e6e6" stroke-width="1.0" stroke-linecap="butt" d="M95.5 293.5L581.5 293.5" fill-rule="nonzero"/><path stroke="#e6e6e6" stroke-width="1.0" stroke-linecap="butt" d="M95.5 258.5L581.5 258.5" fill-rule="nonzero"/><path stroke="#e6e6e6" stroke-width="1.0" stroke-linecap="butt" d="M95.5 240.5L581.5 240.5" fill-rule="nonzero"/><path stroke="#e6e6e6" stroke-width="1.0" stroke-linecap="butt" d="M95.5 204.5L581.5 204.5" fill-rule="nonzero"/><path stroke="#e6e6e6" stroke-width="1.0" stroke-linecap="butt" d="M95.5 186.5L581.5 186.5" fill-rule="nonzero"/><path stroke="#e6e6e6" stroke-width="1.0" stroke-linecap="butt" d="M95.5 151.5L581.5 151.5" fill-rule="nonzero"/><path stroke="#e6e6e6" stroke-width="1.0" stroke-linecap="butt" d="M95.5 133.5L581.5 133.5" fill-rule="nonzero"/><path stroke="#e6e6e6" stroke-width="1.0" stroke-linecap="butt" d="M95.5 97.5L581.5 97.5" fill-rule="nonzero"/><path stroke="#e6e6e6" stroke-width="1.0" stroke-linecap="butt" d="M95.5 79.5L581.5 79.5" fill-rule="nonzero"/><path stroke="#000000" stroke-width="1.0" stroke-linecap="butt" d="M95.5 329.5L95.5 61.5" fill-rule="nonzero"/><clipPath id="id_0"><path d="M95.55 61.916668L581.45 61.916668L581.45 329.45L95.55 329.45L95.55 61.916668Z" clip-rule="nonzero"/></clipPath><path stroke="#000000" stroke-width="2.0" stroke-linecap="butt" stroke-opacity="0.0" clip-path="url(#id_0)" d="M187.0 329.0L128.0 329.0L128.0 140.0C128.0 138.89543 128.89543 138.0 130.0 138.0L185.0 138.0C186.10457 138.0 187.0 138.89543 187.0 140.0Z" fill-rule="nonzero"/><path fill="#4285f4" clip-path="url(#id_0)" d="M187.0 329.0L128.0 329.0L128.0 140.0C128.0 138.89543 128.89543 138.0 130.0 138.0L185.0 138.0C186.10457 138.0 187.0 138.89543 187.0 140.0Z" fill-rule="nonzero"/><path stroke="#000000" stroke-width="2.0" stroke-linecap="butt" stroke-opacity="0.0" clip-path="url(#id_0)" d="M278.0 329.0L219.0 329.0L219.0 275.0C219.0 273.89542 219.89543 273.0 221.0 273.0L276.0 273.0C277.10458 273.0 278.0 273.89542 278.0 275.0Z" fill-rule="nonzero"/><path fill="#4285f4" clip-path="url(#id_0)" d="M278.0 329.0L219.0 329.0L219.0 275.0C219.0 273.89542 219.89543 273.0 221.0 273.0L276.0 273.0C277.10458 273.0 278.0 273.89542 278.0 275.0Z" fill-rule="nonzero"/><path stroke="#000000" stroke-width="2.0" stroke-linecap="butt" stroke-opacity="0.0" clip-path="url(#id_0)" d="M369.0 329.0L310.0 329.0L310.0 284.0C310.0 282.89542 310.89542 282.0 312.0 282.0L367.0 282.0C368.10458 282.0 369.0 282.89542 369.0 284.0Z" fill-rule="nonzero"/><path fill="#4285f4" clip-path="url(#id_0)" d="M369.0 329.0L310.0 329.0L310.0 284.0C310.0 282.89542 310.89542 282.0 312.0 282.0L367.0 282.0C368.10458 282.0 369.0 282.89542 369.0 284.0Z" fill-rule="nonzero"/><path stroke="#000000" stroke-width="2.0" stroke-linecap="butt" stroke-opacity="0.0" clip-path="url(#id_0)" d="M459.0 329.0L400.0 329.0L400.0 78.0C400.0 76.89543 400.89542 76.0 402.0 76.0L457.0 76.0C458.10458 76.0 459.0 76.89543 459.0 78.0Z" fill-rule="nonzero"/><path fill="#4285f4" clip-path="url(#id_0)" d="M459.0 329.0L400.0 329.0L400.0 78.0C400.0 76.89543 400.89542 76.0 402.0 76.0L457.0 76.0C458.10458 76.0 459.0 76.89543 459.0 78.0Z" fill-rule="nonzero"/><path stroke="#000000" stroke-width="2.0" stroke-linecap="butt" stroke-opacity="0.0" clip-path="url(#id_0)" d="M550.0 329.0L491.0 329.0L491.0 191.0C491.0 189.89543 491.89542 189.0 493.0 189.0L548.0 189.0C549.10455 189.0 550.0 189.89543 550.0 191.0Z" fill-rule="nonzero"/><path fill="#4285f4" clip-path="url(#id_0)" d="M550.0 329.0L491.0 329.0L491.0 191.0C491.0 189.89543 491.89542 189.0 493.0 189.0L548.0 189.0C549.10455 189.0 550.0 189.89543 550.0 191.0Z" fill-rule="nonzero"/><path stroke="#000000" stroke-width="1.0" stroke-linecap="butt" d="M92.5 311.5L98.5 311.5" fill-rule="nonzero"/><path stroke="#000000" stroke-width="1.0" stroke-linecap="butt" d="M92.5 293.5L98.5 293.5" fill-rule="nonzero"/><path stroke="#000000" stroke-width="1.0" stroke-linecap="butt" d="M92.5 258.5L98.5 258.5" fill-rule="nonzero"/><path stroke="#000000" stroke-width="1.0" stroke-linecap="butt" d="M92.5 240.5L98.5 240.5" fill-rule="nonzero"/><path stroke="#000000" stroke-width="1.0" stroke-linecap="butt" d="M92.5 204.5L98.5 204.5" fill-rule="nonzero"/><path stroke="#000000" stroke-width="1.0" stroke-linecap="butt" d="M92.5 186.5L98.5 186.5" fill-rule="nonzero"/><path stroke="#000000" stroke-width="1.0" stroke-linecap="butt" d="M92.5 151.5L98.5 151.5" fill-rule="nonzero"/><path stroke="#000000" stroke-width="1.0" stroke-linecap="butt" d="M92.5 133.5L98.5 133.5" fill-rule="nonzero"/><path stroke="#000000" stroke-width="1.0" stroke-linecap="butt" d="M92.5 97.5L98.5 97.5" fill-rule="nonzero"/><path stroke="#000000" stroke-width="1.0" stroke-linecap="butt" d="M92.5 79.5L98.5 79.5" fill-rule="nonzero"/><path stroke="#000000" stroke-width="1.0" stroke-linecap="butt" d="M89.5 329.5L101.5 329.5" fill-rule="nonzero"/><path stroke="#000000" stroke-width="1.0" stroke-linecap="butt" d="M89.5 275.5L101.5 275.5" fill-rule="nonzero"/><path stroke="#000000" stroke-width="1.0" stroke-linecap="butt" d="M89.5 222.5L101.5 222.5" fill-rule="nonzero"/><path stroke="#000000" stroke-width="1.0" stroke-linecap="butt" d="M89.5 168.5L101.5 168.5" fill-rule="nonzero"/><path stroke="#000000" stroke-width="1.0" stroke-linecap="butt" d="M89.5 115.5L101.5 115.5" fill-rule="nonzero"/><path stroke="#000000" stroke-width="1.0" stroke-linecap="butt" d="M89.5 61.5L101.5 61.5" fill-rule="nonzero"/><path fill="#000000" d="M31.721888 230.98021L28.815638 230.38646L28.815638 231.54271L27.784388 231.54271L27.784388 230.18333L25.315638 229.66771L25.315638 231.54271L24.284388 231.54271L24.284388 229.46458L21.362513 228.87083L21.362513 227.85521L24.284388 228.44896L24.284388 226.29271L21.362513 225.69896L21.362513 224.66771L24.284388 225.26146L24.284388 224.07396L25.315638 224.07396L25.315638 225.46458L27.784388 225.98021L27.784388 224.07396L28.815638 224.07396L28.815638 226.18333L31.721888 226.77708L31.721888 227.79271L28.815638 227.21458L28.815638 229.35521L31.721888 229.94896L31.721888 230.98021ZM27.784388 229.15208L27.784388 227.01146L25.315638 226.49583L25.315638 228.65208L27.784388 229.15208ZM31.550013 222.52708L21.534388 222.52708L21.534388 215.77708L22.706263 215.77708L22.706263 221.21458L25.815638 221.21458L25.815638 216.51146L27.003138 216.51146L27.003138 221.21458L31.550013 221.21458L31.550013 222.52708ZM31.550013 213.77708L24.284388 213.77708L24.284388 212.66771L25.393763 212.66771Q24.612513 212.24583 24.378138 211.88646Q24.128138 211.52708 24.128138 211.08958Q24.128138 210.46458 24.518763 209.82396L25.659388 210.24583Q25.393763 210.69896 25.393763 211.15208Q25.393763 211.55833 25.643763 211.88646Q25.878138 212.19896 26.315638 212.33958Q26.971888 212.54271 27.753138 212.54271L31.550013 212.54271L31.550013 213.77708ZM30.659388 204.02708Q31.237513 204.69896 31.487513 205.33958Q31.721888 205.96458 31.721888 206.69896Q31.721888 207.88646 31.143763 208.54271Q30.550013 209.18333 29.628138 209.18333Q29.096888 209.18333 28.659388 208.94896Q28.221888 208.69896 27.956263 208.30833Q27.690638 207.90208 27.550013 207.41771Q27.456263 207.05833 27.362513 206.32396Q27.190638 204.82396 26.940638 204.12083Q26.690638 204.12083 26.628138 204.12083Q25.862513 204.12083 25.565638 204.46458Q25.143763 204.93333 25.143763 205.87083Q25.143763 206.73021 25.456263 207.15208Q25.753138 207.55833 26.518763 207.76146L26.362513 208.96458Q25.581263 208.80833 25.112513 208.43333Q24.643763 208.04271 24.393763 207.33958Q24.128138 206.62083 24.128138 205.68333Q24.128138 204.76146 24.346888 204.18333Q24.565638 203.60521 24.893763 203.33958Q25.221888 203.05833 25.737513 202.94896Q26.050013 202.88646 26.862513 202.88646L28.503138 202.88646Q30.221888 202.88646 30.675013 202.80833Q31.128138 202.73021 31.550013 202.49583L31.550013 203.77708Q31.159388 203.96458 30.659388 204.02708ZM27.909388 204.12083Q28.175013 204.79271 28.378138 206.13646Q28.487513 206.88646 28.628138 207.21458Q28.753138 207.52708 29.018763 207.69896Q29.284388 207.87083 29.596888 207.87083Q30.096888 207.87083 30.425013 207.49583Q30.753138 207.12083 30.753138 206.40208Q30.753138 205.68333 30.440638 205.13646Q30.128138 204.58958 29.581263 204.32396Q29.175013 204.12083 28.362513 204.12083L27.909388 204.12083ZM31.550013 200.76146L24.284388 200.76146L24.284388 199.65208L25.315638 199.65208Q24.768763 199.32396 24.456263 198.76146Q24.128138 198.18333 24.128138 197.46458Q24.128138 196.65208 24.471888 196.13646Q24.800013 195.62083 25.393763 195.40208Q24.128138 194.54271 24.128138 193.16771Q24.128138 192.08958 24.721888 191.51146Q25.315638 190.91771 26.565638 190.91771L31.550013 190.91771L31.550013 192.15208L26.971888 192.15208Q26.237513 192.15208 25.909388 192.27708Q25.581263 192.38646 25.393763 192.69896Q25.190638 193.01146 25.190638 193.43333Q25.190638 194.19896 25.706263 194.71458Q26.206263 195.21458 27.331263 195.21458L31.550013 195.21458L31.550013 196.44896L26.831263 196.44896Q26.018763 196.44896 25.612513 196.74583Q25.190638 197.04271 25.190638 197.73021Q25.190638 198.24583 25.471888 198.69896Q25.737513 199.13646 26.268763 199.33958Q26.784388 199.52708 27.784388 199.52708L31.550013 199.52708L31.550013 200.76146ZM29.206263 184.79271L29.362513 183.51146Q30.487513 183.82396 31.112513 184.63646Q31.721888 185.44896 31.721888 186.71458Q31.721888 188.30833 30.737513 189.24583Q29.753138 190.16771 27.987513 190.16771Q26.143763 190.16771 25.143763 189.23021Q24.128138 188.27708 24.128138 186.77708Q24.128138 185.32396 25.128138 184.40208Q26.112513 183.48021 27.909388 183.48021Q28.018763 183.48021 28.237513 183.48021L28.237513 188.90208Q29.425013 188.82396 30.065638 188.23021Q30.706263 187.62083 30.706263 186.69896Q30.706263 186.02708 30.346888 185.55833Q29.987513 185.07396 29.206263 184.79271ZM27.221888 188.82396L27.221888 184.77708Q26.300013 184.85521 25.846888 185.24583Q25.143763 185.82396 25.143763 186.76146Q25.143763 187.62083 25.706263 188.19896Q26.268763 188.76146 27.221888 188.82396ZM29.378138 182.24583L29.190638 181.04271Q29.925013 180.93333 30.315638 180.46458Q30.706263 179.99583 30.706263 179.15208Q30.706263 178.30833 30.362513 177.90208Q30.018763 177.48021 29.550013 177.48021Q29.128138 177.48021 28.893763 177.85521Q28.721888 178.10521 28.471888 179.10521Q28.128138 180.46458 27.878138 180.99583Q27.628138 181.51146 27.190638 181.77708Q26.753138 182.04271 26.221888 182.04271Q25.737513 182.04271 25.331263 181.82396Q24.909388 181.60521 24.628138 181.21458Q24.425013 180.93333 24.284388 180.44896Q24.128138 179.94896 24.128138 179.37083Q24.128138 178.52708 24.378138 177.88646Q24.612513 177.23021 25.034388 176.91771Q25.456263 176.60521 26.159388 176.49583L26.331263 177.69896Q25.768763 177.77708 25.456263 178.18333Q25.143763 178.57396 25.143763 179.29271Q25.143763 180.13646 25.425013 180.49583Q25.690638 180.85521 26.081263 180.85521Q26.315638 180.85521 26.503138 180.71458Q26.706263 180.55833 26.831263 180.23021Q26.893763 180.05833 27.143763 179.15208Q27.503138 177.83958 27.721888 177.32396Q27.940638 176.80833 28.362513 176.52708Q28.784388 176.23021 29.409388 176.23021Q30.034388 176.23021 30.581263 176.58958Q31.112513 176.93333 31.425013 177.62083Q31.721888 178.29271 31.721888 179.15208Q31.721888 180.55833 31.128138 181.30833Q30.534388 182.04271 29.378138 182.24583Z" fill-rule="nonzero"/><path fill="#000000" d="M77.05 329.21564Q77.05 327.6844 77.3625 326.7625Q77.675 325.825 78.28438 325.325Q78.90938 324.825 79.84688 324.825Q80.53438 324.825 81.05 325.10626Q81.58125 325.3875 81.925 325.91876Q82.26875 326.4344 82.45625 327.1844Q82.64375 327.9344 82.64375 329.21564Q82.64375 330.73126 82.33125 331.65314Q82.03438 332.575 81.40938 333.09064Q80.8 333.59064 79.84688 333.59064Q78.6125 333.59064 77.89375 332.7Q77.05 331.6375 77.05 329.21564ZM78.12813 329.21564Q78.12813 331.325 78.62813 332.02814Q79.12813 332.73126 79.84688 332.73126Q80.58125 332.73126 81.06563 332.02814Q81.56563 331.325 81.56563 329.21564Q81.56563 327.09064 81.06563 326.40314Q80.58125 325.7 79.83125 325.7Q79.1125 325.7 78.675 326.3094Q78.12813 327.09064 78.12813 329.21564Z" fill-rule="nonzero"/><path fill="#000000" d="M60.01875 279.94333L58.971874 279.94333L58.971874 273.22458Q58.58125 273.58395 57.95625 273.95895Q57.346874 274.31833 56.8625 274.4902L56.8625 273.47458Q57.7375 273.0527 58.39375 272.47458Q59.065624 271.88083 59.346874 271.31833L60.01875 271.31833L60.01875 279.94333ZM63.05 275.70895Q63.05 274.1777 63.3625 273.25583Q63.675 272.31833 64.28438 271.81833Q64.90938 271.31833 65.84688 271.31833Q66.53438 271.31833 67.05 271.59958Q67.58125 271.88083 67.925 272.41208Q68.26875 272.9277 68.45625 273.6777Q68.64375 274.4277 68.64375 275.70895Q68.64375 277.22458 68.33125 278.14645Q68.03438 279.06833 67.40938 279.58395Q66.8 280.08395 65.84688 280.08395Q64.6125 280.08395 63.89375 279.19333Q63.05 278.13083 63.05 275.70895ZM64.12813 275.70895Q64.12813 277.81833 64.62813 278.52145Q65.12813 279.22458 65.84688 279.22458Q66.58125 279.22458 67.06563 278.52145Q67.56563 277.81833 67.56563 275.70895Q67.56563 273.58395 67.06563 272.89645Q66.58125 272.19333 65.83125 272.19333Q65.1125 272.19333 64.675 272.8027Q64.12813 273.58395 64.12813 275.70895ZM70.05 275.70895Q70.05 274.1777 70.3625 273.25583Q70.675 272.31833 71.28438 271.81833Q71.90938 271.31833 72.84688 271.31833Q73.53438 271.31833 74.05 271.59958Q74.58125 271.88083 74.925 272.41208Q75.26875 272.9277 75.45625 273.6777Q75.64375 274.4277 75.64375 275.70895Q75.64375 277.22458 75.33125 278.14645Q75.03438 279.06833 74.40938 279.58395Q73.8 280.08395 72.84688 280.08395Q71.6125 280.08395 70.89375 279.19333Q70.05 278.13083 70.05 275.70895ZM71.12813 275.70895Q71.12813 277.81833 71.62813 278.52145Q72.12813 279.22458 72.84688 279.22458Q73.58125 279.22458 74.06563 278.52145Q74.56563 277.81833 74.56563 275.70895Q74.56563 273.58395 74.06563 272.89645Q73.58125 272.19333 72.83125 272.19333Q72.1125 272.19333 71.675 272.8027Q71.12813 273.58395 71.12813 275.70895ZM77.05 275.70895Q77.05 274.1777 77.3625 273.25583Q77.675 272.31833 78.28438 271.81833Q78.90938 271.31833 79.84688 271.31833Q80.53438 271.31833 81.05 271.59958Q81.58125 271.88083 81.925 272.41208Q82.26875 272.9277 82.45625 273.6777Q82.64375 274.4277 82.64375 275.70895Q82.64375 277.22458 82.33125 278.14645Q82.03438 279.06833 81.40938 279.58395Q80.8 280.08395 79.84688 280.08395Q78.6125 280.08395 77.89375 279.19333Q77.05 278.13083 77.05 275.70895ZM78.12813 275.70895Q78.12813 277.81833 78.62813 278.52145Q79.12813 279.22458 79.84688 279.22458Q80.58125 279.22458 81.06563 278.52145Q81.56563 277.81833 81.56563 275.70895Q81.56563 273.58395 81.06563 272.89645Q80.58125 272.19333 79.83125 272.19333Q79.1125 272.19333 78.675 272.8027Q78.12813 273.58395 78.12813 275.70895Z" fill-rule="nonzero"/><path fill="#000000" d="M61.596874 225.42104L61.596874 226.43666L55.909374 226.43666Q55.909374 226.06166 56.034374 225.70229Q56.253124 225.12416 56.721874 224.56166Q57.20625 223.99916 58.1125 223.26479Q59.51875 222.10854 60.003124 221.43666Q60.503124 220.76479 60.503124 220.17104Q60.503124 219.54604 60.05 219.12416Q59.596874 218.68666 58.878124 218.68666Q58.1125 218.68666 57.659374 219.13979Q57.20625 219.59291 57.190624 220.40541L56.1125 220.29604Q56.221874 219.07729 56.940624 218.45229Q57.675 217.81166 58.909374 217.81166Q60.14375 217.81166 60.8625 218.49916Q61.58125 219.18666 61.58125 220.20229Q61.58125 220.71791 61.3625 221.21791Q61.159374 221.70229 60.659374 222.26479Q60.175 222.81166 59.05 223.76479Q58.096874 224.56166 57.815624 224.85854Q57.55 225.13979 57.378124 225.42104L61.596874 225.42104ZM63.05 222.20229Q63.05 220.67104 63.3625 219.74916Q63.675 218.81166 64.28438 218.31166Q64.90938 217.81166 65.84688 217.81166Q66.53438 217.81166 67.05 218.09291Q67.58125 218.37416 67.925 218.90541Q68.26875 219.42104 68.45625 220.17104Q68.64375 220.92104 68.64375 222.20229Q68.64375 223.71791 68.33125 224.63979Q68.03438 225.56166 67.40938 226.07729Q66.8 226.57729 65.84688 226.57729Q64.6125 226.57729 63.89375 225.68666Q63.05 224.62416 63.05 222.20229ZM64.12813 222.20229Q64.12813 224.31166 64.62813 225.01479Q65.12813 225.71791 65.84688 225.71791Q66.58125 225.71791 67.06563 225.01479Q67.56563 224.31166 67.56563 222.20229Q67.56563 220.07729 67.06563 219.38979Q66.58125 218.68666 65.83125 218.68666Q65.1125 218.68666 64.675 219.29604Q64.12813 220.07729 64.12813 222.20229ZM70.05 222.20229Q70.05 220.67104 70.3625 219.74916Q70.675 218.81166 71.28438 218.31166Q71.90938 217.81166 72.84688 217.81166Q73.53438 217.81166 74.05 218.09291Q74.58125 218.37416 74.925 218.90541Q75.26875 219.42104 75.45625 220.17104Q75.64375 220.92104 75.64375 222.20229Q75.64375 223.71791 75.33125 224.63979Q75.03438 225.56166 74.40938 226.07729Q73.8 226.57729 72.84688 226.57729Q71.6125 226.57729 70.89375 225.68666Q70.05 224.62416 70.05 222.20229ZM71.12813 222.20229Q71.12813 224.31166 71.62813 225.01479Q72.12813 225.71791 72.84688 225.71791Q73.58125 225.71791 74.06563 225.01479Q74.56563 224.31166 74.56563 222.20229Q74.56563 220.07729 74.06563 219.38979Q73.58125 218.68666 72.83125 218.68666Q72.1125 218.68666 71.675 219.29604Q71.12813 220.07729 71.12813 222.20229ZM77.05 222.20229Q77.05 220.67104 77.3625 219.74916Q77.675 218.81166 78.28438 218.31166Q78.90938 217.81166 79.84688 217.81166Q80.53438 217.81166 81.05 218.09291Q81.58125 218.37416 81.925 218.90541Q82.26875 219.42104 82.45625 220.17104Q82.64375 220.92104 82.64375 222.20229Q82.64375 223.71791 82.33125 224.63979Q82.03438 225.56166 81.40938 226.07729Q80.8 226.57729 79.84688 226.57729Q78.6125 226.57729 77.89375 225.68666Q77.05 224.62416 77.05 222.20229ZM78.12813 222.20229Q78.12813 224.31166 78.62813 225.01479Q79.12813 225.71791 79.84688 225.71791Q80.58125 225.71791 81.06563 225.01479Q81.56563 224.31166 81.56563 222.20229Q81.56563 220.07729 81.06563 219.38979Q80.58125 218.68666 79.83125 218.68666Q79.1125 218.68666 78.675 219.29604Q78.12813 220.07729 78.12813 222.20229Z" fill-rule="nonzero"/><path fill="#000000" d="M56.05 170.66437L57.1125 170.52374Q57.284374 171.41437 57.721874 171.82062Q58.159374 172.21124 58.784374 172.21124Q59.534374 172.21124 60.05 171.69562Q60.565624 171.18 60.565624 170.41437Q60.565624 169.69562 60.08125 169.22687Q59.6125 168.7425 58.878124 168.7425Q58.58125 168.7425 58.128124 168.8675L58.253124 167.93Q58.3625 167.94562 58.425 167.94562Q59.096874 167.94562 59.628124 167.60187Q60.175 167.2425 60.175 166.50812Q60.175 165.93 59.784374 165.555Q59.39375 165.16437 58.76875 165.16437Q58.159374 165.16437 57.7375 165.555Q57.33125 165.94562 57.221874 166.71124L56.159374 166.52374Q56.346874 165.47687 57.034374 164.89874Q57.721874 164.305 58.7375 164.305Q59.440624 164.305 60.034374 164.6175Q60.628124 164.91437 60.940624 165.43Q61.253124 165.94562 61.253124 166.53937Q61.253124 167.08624 60.95625 167.555Q60.659374 168.00812 60.08125 168.27374Q60.83125 168.44562 61.253124 169.00812Q61.675 169.555 61.675 170.39874Q61.675 171.52374 60.846874 172.305Q60.034374 173.08624 58.784374 173.08624Q57.659374 173.08624 56.909374 172.41437Q56.159374 171.72687 56.05 170.66437ZM63.05 168.69562Q63.05 167.16437 63.3625 166.2425Q63.675 165.305 64.28438 164.805Q64.90938 164.305 65.84688 164.305Q66.53438 164.305 67.05 164.58624Q67.58125 164.8675 67.925 165.39874Q68.26875 165.91437 68.45625 166.66437Q68.64375 167.41437 68.64375 168.69562Q68.64375 170.21124 68.33125 171.13312Q68.03438 172.055 67.40938 172.57062Q66.8 173.07062 65.84688 173.07062Q64.6125 173.07062 63.89375 172.18Q63.05 171.1175 63.05 168.69562ZM64.12813 168.69562Q64.12813 170.805 64.62813 171.50812Q65.12813 172.21124 65.84688 172.21124Q66.58125 172.21124 67.06563 171.50812Q67.56563 170.805 67.56563 168.69562Q67.56563 166.57062 67.06563 165.88312Q66.58125 165.18 65.83125 165.18Q65.1125 165.18 64.675 165.78937Q64.12813 166.57062 64.12813 168.69562ZM70.05 168.69562Q70.05 167.16437 70.3625 166.2425Q70.675 165.305 71.28438 164.805Q71.90938 164.305 72.84688 164.305Q73.53438 164.305 74.05 164.58624Q74.58125 164.8675 74.925 165.39874Q75.26875 165.91437 75.45625 166.66437Q75.64375 167.41437 75.64375 168.69562Q75.64375 170.21124 75.33125 171.13312Q75.03438 172.055 74.40938 172.57062Q73.8 173.07062 72.84688 173.07062Q71.6125 173.07062 70.89375 172.18Q70.05 171.1175 70.05 168.69562ZM71.12813 168.69562Q71.12813 170.805 71.62813 171.50812Q72.12813 172.21124 72.84688 172.21124Q73.58125 172.21124 74.06563 171.50812Q74.56563 170.805 74.56563 168.69562Q74.56563 166.57062 74.06563 165.88312Q73.58125 165.18 72.83125 165.18Q72.1125 165.18 71.675 165.78937Q71.12813 166.57062 71.12813 168.69562ZM77.05 168.69562Q77.05 167.16437 77.3625 166.2425Q77.675 165.305 78.28438 164.805Q78.90938 164.305 79.84688 164.305Q80.53438 164.305 81.05 164.58624Q81.58125 164.8675 81.925 165.39874Q82.26875 165.91437 82.45625 166.66437Q82.64375 167.41437 82.64375 168.69562Q82.64375 170.21124 82.33125 171.13312Q82.03438 172.055 81.40938 172.57062Q80.8 173.07062 79.84688 173.07062Q78.6125 173.07062 77.89375 172.18Q77.05 171.1175 77.05 168.69562ZM78.12813 168.69562Q78.12813 170.805 78.62813 171.50812Q79.12813 172.21124 79.84688 172.21124Q80.58125 172.21124 81.06563 171.50812Q81.56563 170.805 81.56563 168.69562Q81.56563 166.57062 81.06563 165.88312Q80.58125 165.18 79.83125 165.18Q79.1125 165.18 78.675 165.78937Q78.12813 166.57062 78.12813 168.69562Z" fill-rule="nonzero"/><path fill="#000000" d="M59.425 119.42333L59.425 117.36083L55.70625 117.36083L55.70625 116.39208L59.628124 110.82958L60.4875 110.82958L60.4875 116.39208L61.64375 116.39208L61.64375 117.36083L60.4875 117.36083L60.4875 119.42333L59.425 119.42333ZM59.425 116.39208L59.425 112.53271L56.7375 116.39208L59.425 116.39208ZM63.05 115.18896Q63.05 113.65771 63.3625 112.73583Q63.675 111.79833 64.28438 111.29833Q64.90938 110.79833 65.84688 110.79833Q66.53438 110.79833 67.05 111.07958Q67.58125 111.36083 67.925 111.89208Q68.26875 112.40771 68.45625 113.15771Q68.64375 113.90771 68.64375 115.18896Q68.64375 116.70458 68.33125 117.62646Q68.03438 118.54833 67.40938 119.06396Q66.8 119.56396 65.84688 119.56396Q64.6125 119.56396 63.89375 118.67333Q63.05 117.61083 63.05 115.18896ZM64.12813 115.18896Q64.12813 117.29833 64.62813 118.00146Q65.12813 118.70458 65.84688 118.70458Q66.58125 118.70458 67.06563 118.00146Q67.56563 117.29833 67.56563 115.18896Q67.56563 113.06396 67.06563 112.37646Q66.58125 111.67333 65.83125 111.67333Q65.1125 111.67333 64.675 112.28271Q64.12813 113.06396 64.12813 115.18896ZM70.05 115.18896Q70.05 113.65771 70.3625 112.73583Q70.675 111.79833 71.28438 111.29833Q71.90938 110.79833 72.84688 110.79833Q73.53438 110.79833 74.05 111.07958Q74.58125 111.36083 74.925 111.89208Q75.26875 112.40771 75.45625 113.15771Q75.64375 113.90771 75.64375 115.18896Q75.64375 116.70458 75.33125 117.62646Q75.03438 118.54833 74.40938 119.06396Q73.8 119.56396 72.84688 119.56396Q71.6125 119.56396 70.89375 118.67333Q70.05 117.61083 70.05 115.18896ZM71.12813 115.18896Q71.12813 117.29833 71.62813 118.00146Q72.12813 118.70458 72.84688 118.70458Q73.58125 118.70458 74.06563 118.00146Q74.56563 117.29833 74.56563 115.18896Q74.56563 113.06396 74.06563 112.37646Q73.58125 111.67333 72.83125 111.67333Q72.1125 111.67333 71.675 112.28271Q71.12813 113.06396 71.12813 115.18896ZM77.05 115.18896Q77.05 113.65771 77.3625 112.73583Q77.675 111.79833 78.28438 111.29833Q78.90938 110.79833 79.84688 110.79833Q80.53438 110.79833 81.05 111.07958Q81.58125 111.36083 81.925 111.89208Q82.26875 112.40771 82.45625 113.15771Q82.64375 113.90771 82.64375 115.18896Q82.64375 116.70458 82.33125 117.62646Q82.03438 118.54833 81.40938 119.06396Q80.8 119.56396 79.84688 119.56396Q78.6125 119.56396 77.89375 118.67333Q77.05 117.61083 77.05 115.18896ZM78.12813 115.18896Q78.12813 117.29833 78.62813 118.00146Q79.12813 118.70458 79.84688 118.70458Q80.58125 118.70458 81.06563 118.00146Q81.56563 117.29833 81.56563 115.18896Q81.56563 113.06396 81.06563 112.37646Q80.58125 111.67333 79.83125 111.67333Q79.1125 111.67333 78.675 112.28271Q78.12813 113.06396 78.12813 115.18896Z" fill-rule="nonzero"/><path fill="#000000" d="M56.05 63.666664L57.159374 63.572914Q57.284374 64.385414 57.721874 64.791664Q58.175 65.197914 58.815624 65.197914Q59.565624 65.197914 60.096874 64.61979Q60.628124 64.041664 60.628124 63.104164Q60.628124 62.197914 60.1125 61.68229Q59.6125 61.15104 58.784374 61.15104Q58.284374 61.15104 57.8625 61.385414Q57.45625 61.61979 57.221874 61.979164L56.2375 61.854164L57.065624 57.447914L61.346874 57.447914L61.346874 58.447914L57.909374 58.447914L57.45625 60.760414Q58.221874 60.21354 59.065624 60.21354Q60.190624 60.21354 60.95625 60.99479Q61.7375 61.77604 61.7375 63.010414Q61.7375 64.166664 61.065624 65.02604Q60.2375 66.05729 58.815624 66.05729Q57.64375 66.05729 56.89375 65.40104Q56.159374 64.74479 56.05 63.666664ZM63.05 61.68229Q63.05 60.15104 63.3625 59.229164Q63.675 58.291664 64.28438 57.791664Q64.90938 57.291664 65.84688 57.291664Q66.53438 57.291664 67.05 57.572914Q67.58125 57.854164 67.925 58.385414Q68.26875 58.90104 68.45625 59.65104Q68.64375 60.40104 68.64375 61.68229Q68.64375 63.197914 68.33125 64.11979Q68.03438 65.041664 67.40938 65.55729Q66.8 66.05729 65.84688 66.05729Q64.6125 66.05729 63.89375 65.166664Q63.05 64.104164 63.05 61.68229ZM64.12813 61.68229Q64.12813 63.791664 64.62813 64.49479Q65.12813 65.197914 65.84688 65.197914Q66.58125 65.197914 67.06563 64.49479Q67.56563 63.791664 67.56563 61.68229Q67.56563 59.55729 67.06563 58.86979Q66.58125 58.166664 65.83125 58.166664Q65.1125 58.166664 64.675 58.77604Q64.12813 59.55729 64.12813 61.68229ZM70.05 61.68229Q70.05 60.15104 70.3625 59.229164Q70.675 58.291664 71.28438 57.791664Q71.90938 57.291664 72.84688 57.291664Q73.53438 57.291664 74.05 57.572914Q74.58125 57.854164 74.925 58.385414Q75.26875 58.90104 75.45625 59.65104Q75.64375 60.40104 75.64375 61.68229Q75.64375 63.197914 75.33125 64.11979Q75.03438 65.041664 74.40938 65.55729Q73.8 66.05729 72.84688 66.05729Q71.6125 66.05729 70.89375 65.166664Q70.05 64.104164 70.05 61.68229ZM71.12813 61.68229Q71.12813 63.791664 71.62813 64.49479Q72.12813 65.197914 72.84688 65.197914Q73.58125 65.197914 74.06563 64.49479Q74.56563 63.791664 74.56563 61.68229Q74.56563 59.55729 74.06563 58.86979Q73.58125 58.166664 72.83125 58.166664Q72.1125 58.166664 71.675 58.77604Q71.12813 59.55729 71.12813 61.68229ZM77.05 61.68229Q77.05 60.15104 77.3625 59.229164Q77.675 58.291664 78.28438 57.791664Q78.90938 57.291664 79.84688 57.291664Q80.53438 57.291664 81.05 57.572914Q81.58125 57.854164 81.925 58.385414Q82.26875 58.90104 82.45625 59.65104Q82.64375 60.40104 82.64375 61.68229Q82.64375 63.197914 82.33125 64.11979Q82.03438 65.041664 81.40938 65.55729Q80.8 66.05729 79.84688 66.05729Q78.6125 66.05729 77.89375 65.166664Q77.05 64.104164 77.05 61.68229ZM78.12813 61.68229Q78.12813 63.791664 78.62813 64.49479Q79.12813 65.197914 79.84688 65.197914Q80.58125 65.197914 81.06563 64.49479Q81.56563 63.791664 81.56563 61.68229Q81.56563 59.55729 81.06563 58.86979Q80.58125 58.166664 79.83125 58.166664Q79.1125 58.166664 78.675 58.77604Q78.12813 59.55729 78.12813 61.68229Z" fill-rule="nonzero"/><path fill="#000000" d="M148.08951 345.9344L149.41763 346.27814Q148.99576 347.90314 147.90201 348.7625Q146.82388 349.6219 145.26138 349.6219Q143.63638 349.6219 142.62076 348.96564Q141.60513 348.29376 141.07388 347.04376Q140.55826 345.79376 140.55826 344.35626Q140.55826 342.79376 141.15201 341.6375Q141.74576 340.46564 142.85513 339.8719Q143.96451 339.2625 145.27701 339.2625Q146.79263 339.2625 147.80826 340.02814Q148.83951 340.79376 149.24576 342.16876L147.93326 342.48126Q147.58951 341.3875 146.91763 340.8875Q146.26138 340.3875 145.26138 340.3875Q144.10513 340.3875 143.32388 340.95Q142.54263 341.4969 142.23013 342.4344Q141.91763 343.3719 141.91763 344.35626Q141.91763 345.6375 142.29263 346.59064Q142.66763 347.54376 143.44888 348.0125Q144.23013 348.48126 145.15201 348.48126Q146.26138 348.48126 147.02701 347.84064Q147.80826 347.2 148.08951 345.9344ZM150.74576 349.45L150.74576 339.4344L151.98013 339.4344L151.98013 349.45L150.74576 349.45ZM158.74576 347.10626L160.02701 347.2625Q159.71451 348.3875 158.90201 349.0125Q158.08951 349.6219 156.82388 349.6219Q155.23013 349.6219 154.29263 348.6375Q153.37076 347.65314 153.37076 345.8875Q153.37076 344.04376 154.30826 343.04376Q155.26138 342.02814 156.76138 342.02814Q158.21451 342.02814 159.13638 343.02814Q160.05826 344.0125 160.05826 345.8094Q160.05826 345.91876 160.05826 346.1375L154.63638 346.1375Q154.71451 347.325 155.30826 347.96564Q155.91763 348.60626 156.83951 348.60626Q157.51138 348.60626 157.98013 348.2469Q158.46451 347.8875 158.74576 347.10626ZM154.71451 345.1219L158.76138 345.1219Q158.68326 344.2 158.29263 343.7469Q157.71451 343.04376 156.77701 343.04376Q155.91763 343.04376 155.33951 343.60626Q154.77701 344.16876 154.71451 345.1219ZM166.51138 348.5594Q165.83951 349.1375 165.19888 349.3875Q164.57388 349.6219 163.83951 349.6219Q162.65201 349.6219 161.99576 349.04376Q161.35513 348.45 161.35513 347.52814Q161.35513 346.9969 161.58951 346.5594Q161.83951 346.1219 162.23013 345.85626Q162.63638 345.59064 163.12076 345.45Q163.48013 345.35626 164.21451 345.2625Q165.71451 345.09064 166.41763 344.84064Q166.41763 344.59064 166.41763 344.52814Q166.41763 343.7625 166.07388 343.46564Q165.60513 343.04376 164.66763 343.04376Q163.80826 343.04376 163.38638 343.35626Q162.98013 343.65314 162.77701 344.41876L161.57388 344.2625Q161.73013 343.48126 162.10513 343.0125Q162.49576 342.54376 163.19888 342.29376Q163.91763 342.02814 164.85513 342.02814Q165.77701 342.02814 166.35513 342.2469Q166.93326 342.46564 167.19888 342.79376Q167.48013 343.1219 167.58951 343.6375Q167.65201 343.95 167.65201 344.7625L167.65201 346.40314Q167.65201 348.1219 167.73013 348.575Q167.80826 349.02814 168.04263 349.45L166.76138 349.45Q166.57388 349.0594 166.51138 348.5594ZM166.41763 345.8094Q165.74576 346.075 164.40201 346.27814Q163.65201 346.3875 163.32388 346.52814Q163.01138 346.65314 162.83951 346.91876Q162.66763 347.1844 162.66763 347.4969Q162.66763 347.9969 163.04263 348.325Q163.41763 348.65314 164.13638 348.65314Q164.85513 348.65314 165.40201 348.34064Q165.94888 348.02814 166.21451 347.48126Q166.41763 347.075 166.41763 346.2625L166.41763 345.8094ZM169.76138 349.45L169.76138 342.1844L170.87076 342.1844L170.87076 343.29376Q171.29263 342.5125 171.65201 342.27814Q172.01138 342.02814 172.44888 342.02814Q173.07388 342.02814 173.71451 342.41876L173.29263 343.5594Q172.83951 343.29376 172.38638 343.29376Q171.98013 343.29376 171.65201 343.54376Q171.33951 343.77814 171.19888 344.21564Q170.99576 344.8719 170.99576 345.65314L170.99576 349.45L169.76138 349.45Z" fill-rule="nonzero"/><path fill="#000000" d="M218.70882 349.45L218.70882 339.4344L220.03694 339.4344L220.03694 348.2625L224.95882 348.2625L224.95882 349.45L218.70882 349.45ZM226.61507 340.84064L226.61507 339.4344L227.83382 339.4344L227.83382 340.84064L226.61507 340.84064ZM226.61507 349.45L226.61507 342.1844L227.83382 342.1844L227.83382 349.45L226.61507 349.45ZM229.38069 350.0594L230.56819 350.23126Q230.64632 350.77814 230.99007 351.04376Q231.44319 351.3719 232.24007 351.3719Q233.09944 351.3719 233.55257 351.02814Q234.02132 350.7 234.19319 350.075Q234.28694 349.7 234.27132 348.4969Q233.47444 349.45 232.27132 349.45Q230.77132 349.45 229.94319 348.3719Q229.13069 347.29376 229.13069 345.77814Q229.13069 344.7469 229.50569 343.8719Q229.88069 342.98126 230.58382 342.5125Q231.30257 342.02814 232.27132 342.02814Q233.55257 342.02814 234.39632 343.0594L234.39632 342.1844L235.52132 342.1844L235.52132 348.46564Q235.52132 350.16876 235.17757 350.8719Q234.83382 351.575 234.08382 351.98126Q233.33382 352.40314 232.24007 352.40314Q230.94319 352.40314 230.14632 351.8094Q229.34944 351.23126 229.38069 350.0594ZM230.39632 345.6844Q230.39632 347.1219 230.95882 347.77814Q231.52132 348.4344 232.38069 348.4344Q233.22444 348.4344 233.80257 347.77814Q234.38069 347.1219 234.38069 345.73126Q234.38069 344.40314 233.78694 343.73126Q233.19319 343.04376 232.36507 343.04376Q231.53694 343.04376 230.95882 343.71564Q230.39632 344.3719 230.39632 345.6844ZM237.59944 349.45L237.59944 339.4344L238.83382 339.4344L238.83382 343.02814Q239.69319 342.02814 241.00569 342.02814Q241.81819 342.02814 242.41194 342.35626Q243.00569 342.66876 243.25569 343.23126Q243.52132 343.77814 243.52132 344.85626L243.52132 349.45L242.28694 349.45L242.28694 344.85626Q242.28694 343.91876 241.88069 343.5125Q241.49007 343.09064 240.75569 343.09064Q240.20882 343.09064 239.72444 343.3719Q239.24007 343.65314 239.03694 344.1375Q238.83382 344.6219 238.83382 345.48126L238.83382 349.45L237.59944 349.45ZM248.28694 348.35626L248.45882 349.4344Q247.94319 349.54376 247.53694 349.54376Q246.86507 349.54376 246.49007 349.34064Q246.13069 349.1219 245.97444 348.77814Q245.83382 348.4344 245.83382 347.325L245.83382 343.15314L244.92757 343.15314L244.92757 342.1844L245.83382 342.1844L245.83382 340.3875L247.05257 339.65314L247.05257 342.1844L248.28694 342.1844L248.28694 343.15314L247.05257 343.15314L247.05257 347.3875Q247.05257 347.91876 247.11507 348.075Q247.17757 348.21564 247.31819 348.3094Q247.47444 348.40314 247.74007 348.40314Q247.95882 348.40314 248.28694 348.35626ZM253.83382 349.45L253.83382 339.4344L260.5838 339.4344L260.5838 340.60626L255.14632 340.60626L255.14632 343.71564L259.84943 343.71564L259.84943 344.90314L255.14632 344.90314L255.14632 349.45L253.83382 349.45ZM262.1463 345.825Q262.1463 343.8094 263.2713 342.825Q264.19318 342.02814 265.55255 342.02814Q267.03693 342.02814 267.99005 343.0125Q268.94318 343.98126 268.94318 345.71564Q268.94318 347.1219 268.5213 347.9344Q268.09943 348.73126 267.28693 349.1844Q266.49005 349.6219 265.55255 349.6219Q264.0213 349.6219 263.0838 348.6375Q262.1463 347.65314 262.1463 345.825ZM263.41193 345.825Q263.41193 347.21564 264.0213 347.91876Q264.63068 348.60626 265.55255 348.60626Q266.4588 348.60626 267.06818 347.90314Q267.67755 347.2 267.67755 345.77814Q267.67755 344.4344 267.06818 343.7469Q266.4588 343.04376 265.55255 343.04376Q264.63068 343.04376 264.0213 343.73126Q263.41193 344.41876 263.41193 345.825ZM270.38068 350.0594L271.56818 350.23126Q271.6463 350.77814 271.99005 351.04376Q272.44318 351.3719 273.24005 351.3719Q274.09943 351.3719 274.55255 351.02814Q275.0213 350.7 275.19318 350.075Q275.28693 349.7 275.2713 348.4969Q274.47443 349.45 273.2713 349.45Q271.7713 349.45 270.94318 348.3719Q270.13068 347.29376 270.13068 345.77814Q270.13068 344.7469 270.50568 343.8719Q270.88068 342.98126 271.5838 342.5125Q272.30255 342.02814 273.2713 342.02814Q274.55255 342.02814 275.3963 343.0594L275.3963 342.1844L276.5213 342.1844L276.5213 348.46564Q276.5213 350.16876 276.17755 350.8719Q275.8338 351.575 275.0838 351.98126Q274.3338 352.40314 273.24005 352.40314Q271.94318 352.40314 271.1463 351.8094Q270.34943 351.23126 270.38068 350.0594ZM271.3963 345.6844Q271.3963 347.1219 271.9588 347.77814Q272.5213 348.4344 273.38068 348.4344Q274.22443 348.4344 274.80255 347.77814Q275.38068 347.1219 275.38068 345.73126Q275.38068 344.40314 274.78693 343.73126Q274.19318 343.04376 273.36505 343.04376Q272.53693 343.04376 271.9588 343.71564Q271.3963 344.3719 271.3963 345.6844Z" fill-rule="nonzero"/><path fill="#000000" d="M304.57812 349.45L304.57812 339.4344L308.03125 339.4344Q309.20312 339.4344 309.8125 339.575Q310.67188 339.7625 311.28125 340.29376Q312.07812 340.96564 312.46875 342.0125Q312.85938 343.04376 312.85938 344.3875Q312.85938 345.52814 312.59375 346.41876Q312.32812 347.29376 311.90625 347.8719Q311.5 348.45 311.0 348.77814Q310.5 349.10626 309.79688 349.27814Q309.10938 349.45 308.20312 349.45L304.57812 349.45ZM305.90625 348.2625L308.04688 348.2625Q309.03125 348.2625 309.59375 348.09064Q310.17188 347.90314 310.5 347.5594Q310.96875 347.09064 311.23438 346.29376Q311.5 345.4969 311.5 344.35626Q311.5 342.79376 310.98438 341.95Q310.46875 341.10626 309.73438 340.8094Q309.1875 340.60626 308.01562 340.60626L305.90625 340.60626L305.90625 348.2625ZM319.39062 347.10626L320.67188 347.2625Q320.35938 348.3875 319.54688 349.0125Q318.73438 349.6219 317.46875 349.6219Q315.875 349.6219 314.9375 348.6375Q314.01562 347.65314 314.01562 345.8875Q314.01562 344.04376 314.95312 343.04376Q315.90625 342.02814 317.40625 342.02814Q318.85938 342.02814 319.78125 343.02814Q320.70312 344.0125 320.70312 345.8094Q320.70312 345.91876 320.70312 346.1375L315.28125 346.1375Q315.35938 347.325 315.95312 347.96564Q316.5625 348.60626 317.48438 348.60626Q318.15625 348.60626 318.625 348.2469Q319.10938 347.8875 319.39062 347.10626ZM315.35938 345.1219L319.40625 345.1219Q319.32812 344.2 318.9375 343.7469Q318.35938 343.04376 317.42188 343.04376Q316.5625 343.04376 315.98438 343.60626Q315.42188 344.16876 315.35938 345.1219ZM322.42188 349.45L322.42188 342.1844L323.53125 342.1844L323.53125 343.21564Q324.32812 342.02814 325.84375 342.02814Q326.5 342.02814 327.04688 342.2625Q327.59375 342.4969 327.85938 342.8875Q328.14062 343.2625 328.25 343.79376Q328.32812 344.1375 328.32812 344.98126L328.32812 349.45L327.09375 349.45L327.09375 345.02814Q327.09375 344.27814 326.95312 343.91876Q326.8125 343.54376 326.4375 343.325Q326.07812 343.09064 325.57812 343.09064Q324.79688 343.09064 324.21875 343.59064Q323.65625 344.09064 323.65625 345.48126L323.65625 349.45L322.42188 349.45ZM329.9375 347.27814L331.14062 347.09064Q331.25 347.825 331.71875 348.21564Q332.1875 348.60626 333.03125 348.60626Q333.875 348.60626 334.28125 348.2625Q334.70312 347.91876 334.70312 347.45Q334.70312 347.02814 334.32812 346.79376Q334.07812 346.6219 333.07812 346.3719Q331.71875 346.02814 331.1875 345.77814Q330.67188 345.52814 330.40625 345.09064Q330.14062 344.65314 330.14062 344.1219Q330.14062 343.6375 330.35938 343.23126Q330.57812 342.8094 330.96875 342.52814Q331.25 342.325 331.73438 342.1844Q332.23438 342.02814 332.8125 342.02814Q333.65625 342.02814 334.29688 342.27814Q334.95312 342.5125 335.26562 342.9344Q335.57812 343.35626 335.6875 344.0594L334.48438 344.23126Q334.40625 343.66876 334.0 343.35626Q333.60938 343.04376 332.89062 343.04376Q332.04688 343.04376 331.6875 343.325Q331.32812 343.59064 331.32812 343.98126Q331.32812 344.21564 331.46875 344.40314Q331.625 344.60626 331.95312 344.73126Q332.125 344.79376 333.03125 345.04376Q334.34375 345.40314 334.85938 345.6219Q335.375 345.84064 335.65625 346.2625Q335.95312 346.6844 335.95312 347.3094Q335.95312 347.9344 335.59375 348.48126Q335.25 349.0125 334.5625 349.325Q333.89062 349.6219 333.03125 349.6219Q331.625 349.6219 330.875 349.02814Q330.14062 348.4344 329.9375 347.27814ZM342.39062 347.10626L343.67188 347.2625Q343.35938 348.3875 342.54688 349.0125Q341.73438 349.6219 340.46875 349.6219Q338.875 349.6219 337.9375 348.6375Q337.01562 347.65314 337.01562 345.8875Q337.01562 344.04376 337.95312 343.04376Q338.90625 342.02814 340.40625 342.02814Q341.85938 342.02814 342.78125 343.02814Q343.70312 344.0125 343.70312 345.8094Q343.70312 345.91876 343.70312 346.1375L338.28125 346.1375Q338.35938 347.325 338.95312 347.96564Q339.5625 348.60626 340.48438 348.60626Q341.15625 348.60626 341.625 348.2469Q342.10938 347.8875 342.39062 347.10626ZM338.35938 345.1219L342.40625 345.1219Q342.32812 344.2 341.9375 343.7469Q341.35938 343.04376 340.42188 343.04376Q339.5625 343.04376 338.98438 343.60626Q338.42188 344.16876 338.35938 345.1219ZM349.65625 349.45L349.65625 339.4344L356.40625 339.4344L356.40625 340.60626L350.96875 340.60626L350.96875 343.71564L355.67188 343.71564L355.67188 344.90314L350.96875 344.90314L350.96875 349.45L349.65625 349.45ZM357.96875 345.825Q357.96875 343.8094 359.09375 342.825Q360.01562 342.02814 361.375 342.02814Q362.85938 342.02814 363.8125 343.0125Q364.76562 343.98126 364.76562 345.71564Q364.76562 347.1219 364.34375 347.9344Q363.92188 348.73126 363.10938 349.1844Q362.3125 349.6219 361.375 349.6219Q359.84375 349.6219 358.90625 348.6375Q357.96875 347.65314 357.96875 345.825ZM359.23438 345.825Q359.23438 347.21564 359.84375 347.91876Q360.45312 348.60626 361.375 348.60626Q362.28125 348.60626 362.89062 347.90314Q363.5 347.2 363.5 345.77814Q363.5 344.4344 362.89062 343.7469Q362.28125 343.04376 361.375 343.04376Q360.45312 343.04376 359.84375 343.73126Q359.23438 344.41876 359.23438 345.825ZM366.20312 350.0594L367.39062 350.23126Q367.46875 350.77814 367.8125 351.04376Q368.26562 351.3719 369.0625 351.3719Q369.92188 351.3719 370.375 351.02814Q370.84375 350.7 371.01562 350.075Q371.10938 349.7 371.09375 348.4969Q370.29688 349.45 369.09375 349.45Q367.59375 349.45 366.76562 348.3719Q365.95312 347.29376 365.95312 345.77814Q365.95312 344.7469 366.32812 343.8719Q366.70312 342.98126 367.40625 342.5125Q368.125 342.02814 369.09375 342.02814Q370.375 342.02814 371.21875 343.0594L371.21875 342.1844L372.34375 342.1844L372.34375 348.46564Q372.34375 350.16876 372.0 350.8719Q371.65625 351.575 370.90625 351.98126Q370.15625 352.40314 369.0625 352.40314Q367.76562 352.40314 366.96875 351.8094Q366.17188 351.23126 366.20312 350.0594ZM367.21875 345.6844Q367.21875 347.1219 367.78125 347.77814Q368.34375 348.4344 369.20312 348.4344Q370.04688 348.4344 370.625 347.77814Q371.20312 347.1219 371.20312 345.73126Q371.20312 344.40314 370.60938 343.73126Q370.01562 343.04376 369.1875 343.04376Q368.35938 343.04376 367.78125 343.71564Q367.21875 344.3719 367.21875 345.6844Z" fill-rule="nonzero"/><path fill="#000000" d="M396.91617 349.45L396.91617 339.4344L401.3693 339.4344Q402.71304 339.4344 403.40054 339.7Q404.10367 339.96564 404.50992 340.65314Q404.9318 341.34064 404.9318 342.16876Q404.9318 343.23126 404.2443 343.96564Q403.5568 344.6844 402.1193 344.8875Q402.63492 345.1375 402.91617 345.3875Q403.4943 345.91876 404.00992 346.71564L405.75992 349.45L404.08804 349.45L402.75992 347.3719Q402.1818 346.46564 401.8068 345.9969Q401.4318 345.5125 401.13492 345.325Q400.83804 345.1219 400.52554 345.04376Q400.3068 344.9969 399.79117 344.9969L398.2443 344.9969L398.2443 349.45L396.91617 349.45ZM398.2443 343.85626L401.10367 343.85626Q402.00992 343.85626 402.52554 343.66876Q403.04117 343.48126 403.3068 343.075Q403.57242 342.65314 403.57242 342.16876Q403.57242 341.45 403.0568 340.9969Q402.54117 340.52814 401.41617 340.52814L398.2443 340.52814L398.2443 343.85626ZM411.47867 348.5594Q410.8068 349.1375 410.16617 349.3875Q409.54117 349.6219 408.8068 349.6219Q407.6193 349.6219 406.96304 349.04376Q406.32242 348.45 406.32242 347.52814Q406.32242 346.9969 406.5568 346.5594Q406.8068 346.1219 407.19742 345.85626Q407.60367 345.59064 408.08804 345.45Q408.44742 345.35626 409.1818 345.2625Q410.6818 345.09064 411.38492 344.84064Q411.38492 344.59064 411.38492 344.52814Q411.38492 343.7625 411.04117 343.46564Q410.57242 343.04376 409.63492 343.04376Q408.77554 343.04376 408.35367 343.35626Q407.94742 343.65314 407.7443 344.41876L406.54117 344.2625Q406.69742 343.48126 407.07242 343.0125Q407.46304 342.54376 408.16617 342.29376Q408.88492 342.02814 409.82242 342.02814Q410.7443 342.02814 411.32242 342.2469Q411.90054 342.46564 412.16617 342.79376Q412.44742 343.1219 412.5568 343.6375Q412.6193 343.95 412.6193 344.7625L412.6193 346.40314Q412.6193 348.1219 412.69742 348.575Q412.77554 349.02814 413.00992 349.45L411.72867 349.45Q411.54117 349.0594 411.47867 348.5594ZM411.38492 345.8094Q410.71304 346.075 409.3693 346.27814Q408.6193 346.3875 408.29117 346.52814Q407.97867 346.65314 407.8068 346.91876Q407.63492 347.1844 407.63492 347.4969Q407.63492 347.9969 408.00992 348.325Q408.38492 348.65314 409.10367 348.65314Q409.82242 348.65314 410.3693 348.34064Q410.91617 348.02814 411.1818 347.48126Q411.38492 347.075 411.38492 346.2625L411.38492 345.8094ZM414.75992 340.84064L414.75992 339.4344L415.97867 339.4344L415.97867 340.84064L414.75992 340.84064ZM414.75992 349.45L414.75992 342.1844L415.97867 342.1844L415.97867 349.45L414.75992 349.45ZM417.7443 349.45L417.7443 342.1844L418.85367 342.1844L418.85367 343.21564Q419.65054 342.02814 421.16617 342.02814Q421.82242 342.02814 422.3693 342.2625Q422.91617 342.4969 423.1818 342.8875Q423.46304 343.2625 423.57242 343.79376Q423.65054 344.1375 423.65054 344.98126L423.65054 349.45L422.41617 349.45L422.41617 345.02814Q422.41617 344.27814 422.27554 343.91876Q422.13492 343.54376 421.75992 343.325Q421.40054 343.09064 420.90054 343.09064Q420.1193 343.09064 419.54117 343.59064Q418.97867 344.09064 418.97867 345.48126L418.97867 349.45L417.7443 349.45ZM424.82242 349.6219L427.72867 339.2625L428.71304 339.2625L425.8068 349.6219L424.82242 349.6219ZM429.44742 346.23126L430.69742 346.1219Q430.79117 346.8719 431.1193 347.35626Q431.44742 347.84064 432.1193 348.1375Q432.8068 348.4344 433.66617 348.4344Q434.41617 348.4344 434.9943 348.21564Q435.58804 347.98126 435.8693 347.59064Q436.15054 347.2 436.15054 346.73126Q436.15054 346.2625 435.8693 345.91876Q435.60367 345.5594 434.97867 345.3094Q434.57242 345.15314 433.1818 344.825Q431.8068 344.4969 431.25992 344.2Q430.54117 343.825 430.1818 343.27814Q429.83804 342.71564 429.83804 342.0125Q429.83804 341.2625 430.25992 340.60626Q430.69742 339.9344 431.52554 339.60626Q432.35367 339.2625 433.3693 339.2625Q434.47867 339.2625 435.32242 339.6219Q436.1818 339.98126 436.63492 340.6844Q437.08804 341.3719 437.13492 342.2469L435.85367 342.34064Q435.75992 341.40314 435.16617 340.91876Q434.57242 340.41876 433.41617 340.41876Q432.21304 340.41876 431.66617 340.8719Q431.1193 341.3094 431.1193 341.9344Q431.1193 342.46564 431.50992 342.825Q431.88492 343.16876 433.4943 343.54376Q435.1193 343.90314 435.71304 344.16876Q436.58804 344.575 437.00992 345.2Q437.4318 345.8094 437.4318 346.6219Q437.4318 347.41876 436.96304 348.1375Q436.50992 348.84064 435.65054 349.23126Q434.79117 349.6219 433.72867 349.6219Q432.3693 349.6219 431.44742 349.23126Q430.52554 348.825 429.9943 348.02814Q429.47867 347.23126 429.44742 346.23126ZM438.7443 349.45L438.7443 342.1844L439.85367 342.1844L439.85367 343.21564Q440.65054 342.02814 442.16617 342.02814Q442.82242 342.02814 443.3693 342.2625Q443.91617 342.4969 444.1818 342.8875Q444.46304 343.2625 444.57242 343.79376Q444.65054 344.1375 444.65054 344.98126L444.65054 349.45L443.41617 349.45L443.41617 345.02814Q443.41617 344.27814 443.27554 343.91876Q443.13492 343.54376 442.75992 343.325Q442.40054 343.09064 441.90054 343.09064Q441.1193 343.09064 440.54117 343.59064Q439.97867 344.09064 439.97867 345.48126L439.97867 349.45L438.7443 349.45ZM446.29117 345.825Q446.29117 343.8094 447.41617 342.825Q448.33804 342.02814 449.69742 342.02814Q451.1818 342.02814 452.13492 343.0125Q453.08804 343.98126 453.08804 345.71564Q453.08804 347.1219 452.66617 347.9344Q452.2443 348.73126 451.4318 349.1844Q450.63492 349.6219 449.69742 349.6219Q448.16617 349.6219 447.22867 348.6375Q446.29117 347.65314 446.29117 345.825ZM447.5568 345.825Q447.5568 347.21564 448.16617 347.91876Q448.77554 348.60626 449.69742 348.60626Q450.60367 348.60626 451.21304 347.90314Q451.82242 347.2 451.82242 345.77814Q451.82242 344.4344 451.21304 343.7469Q450.60367 343.04376 449.69742 343.04376Q448.77554 343.04376 448.16617 343.73126Q447.5568 344.41876 447.5568 345.825ZM456.08804 349.45L453.8693 342.1844L455.13492 342.1844L456.29117 346.3875L456.72867 347.9344Q456.7443 347.825 457.10367 346.4344L458.25992 342.1844L459.50992 342.1844L460.60367 346.40314L460.96304 347.79376L461.38492 346.3875L462.63492 342.1844L463.82242 342.1844L461.5568 349.45L460.27554 349.45L459.1193 345.10626L458.83804 343.8719L457.3693 349.45L456.08804 349.45Z" fill-rule="nonzero"/><path fill="#000000" d="M505.20737 349.45L505.20737 339.4344L506.56674 339.4344L511.83237 347.29376L511.83237 339.4344L513.11365 339.4344L513.11365 349.45L511.75424 349.45L506.48862 341.575L506.48862 349.45L505.20737 349.45ZM514.0824 340.84064L514.0824 339.4344L515.30115 339.4344L515.30115 340.84064L514.0824 340.84064ZM514.0824 349.45L514.0824 342.1844L515.30115 342.1844L515.30115 349.45L514.0824 349.45ZM516.848 350.0594L518.0355 350.23126Q518.11365 350.77814 518.4574 351.04376Q518.9105 351.3719 519.7074 351.3719Q520.5668 351.3719 521.0199 351.02814Q521.48865 350.7 521.6605 350.075Q521.7543 349.7 521.73865 348.4969Q520.9418 349.45 519.73865 349.45Q518.23865 349.45 517.4105 348.3719Q516.598 347.29376 516.598 345.77814Q516.598 344.7469 516.973 343.8719Q517.348 342.98126 518.05115 342.5125Q518.7699 342.02814 519.73865 342.02814Q521.0199 342.02814 521.86365 343.0594L521.86365 342.1844L522.98865 342.1844L522.98865 348.46564Q522.98865 350.16876 522.6449 350.8719Q522.30115 351.575 521.55115 351.98126Q520.80115 352.40314 519.7074 352.40314Q518.4105 352.40314 517.61365 351.8094Q516.8168 351.23126 516.848 350.0594ZM517.86365 345.6844Q517.86365 347.1219 518.42615 347.77814Q518.98865 348.4344 519.848 348.4344Q520.6918 348.4344 521.2699 347.77814Q521.848 347.1219 521.848 345.73126Q521.848 344.40314 521.2543 343.73126Q520.6605 343.04376 519.8324 343.04376Q519.0043 343.04376 518.42615 343.71564Q517.86365 344.3719 517.86365 345.6844ZM525.0668 349.45L525.0668 339.4344L526.30115 339.4344L526.30115 343.02814Q527.1605 342.02814 528.473 342.02814Q529.2855 342.02814 529.8793 342.35626Q530.473 342.66876 530.723 343.23126Q530.98865 343.77814 530.98865 344.85626L530.98865 349.45L529.7543 349.45L529.7543 344.85626Q529.7543 343.91876 529.348 343.5125Q528.9574 343.09064 528.223 343.09064Q527.67615 343.09064 527.1918 343.3719Q526.7074 343.65314 526.5043 344.1375Q526.30115 344.6219 526.30115 345.48126L526.30115 349.45L525.0668 349.45ZM535.7543 348.35626L535.92615 349.4344Q535.4105 349.54376 535.0043 349.54376Q534.3324 349.54376 533.9574 349.34064Q533.598 349.1219 533.4418 348.77814Q533.30115 348.4344 533.30115 347.325L533.30115 343.15314L532.3949 343.15314L532.3949 342.1844L533.30115 342.1844L533.30115 340.3875L534.5199 339.65314L534.5199 342.1844L535.7543 342.1844L535.7543 343.15314L534.5199 343.15314L534.5199 347.3875Q534.5199 347.91876 534.5824 348.075Q534.6449 348.21564 534.7855 348.3094Q534.9418 348.40314 535.2074 348.40314Q535.42615 348.40314 535.7543 348.35626Z" fill-rule="nonzero"/><path fill="#000000" d="M215.04688 37.55L211.25 23.2375L213.1875 23.2375L215.35938 32.6125Q215.71875 34.096874 215.96875 35.55Q216.51562 33.253124 216.60938 32.89375L219.34375 23.2375L221.625 23.2375L223.67188 30.471874Q224.45312 33.175 224.79688 35.55Q225.0625 34.190624 225.5 32.425L227.75 23.2375L229.65625 23.2375L225.73438 37.55L223.90625 37.55L220.89062 26.64375Q220.5 25.26875 220.4375 24.95625Q220.20312 25.940624 220.01562 26.64375L216.98438 37.55L215.04688 37.55ZM238.42188 34.20625L240.23438 34.440624Q239.8125 36.01875 238.64062 36.909374Q237.48438 37.784374 235.67188 37.784374Q233.40625 37.784374 232.0625 36.39375Q230.73438 34.9875 230.73438 32.45625Q230.73438 29.83125 232.07812 28.39375Q233.42188 26.940624 235.57812 26.940624Q237.65625 26.940624 238.96875 28.3625Q240.29688 29.76875 240.29688 32.346874Q240.29688 32.503124 240.28125 32.815624L232.54688 32.815624Q232.64062 34.51875 233.51562 35.425Q234.39062 36.33125 235.6875 36.33125Q236.65625 36.33125 237.32812 35.83125Q238.01562 35.315624 238.42188 34.20625ZM232.64062 31.3625L238.4375 31.3625Q238.32812 30.065624 237.78125 29.409374Q236.9375 28.39375 235.59375 28.39375Q234.39062 28.39375 233.5625 29.20625Q232.73438 30.003124 232.64062 31.3625ZM249.09375 36.26875Q248.10938 37.096874 247.20312 37.440624Q246.29688 37.784374 245.26562 37.784374Q243.5625 37.784374 242.64062 36.95625Q241.71875 36.1125 241.71875 34.815624Q241.71875 34.05 242.0625 33.425Q242.42188 32.8 242.98438 32.425Q243.54688 32.034374 244.25 31.83125Q244.76562 31.70625 245.8125 31.565624Q247.9375 31.315624 248.9375 30.971874Q248.95312 30.6125 248.95312 30.503124Q248.95312 29.440624 248.45312 28.9875Q247.78125 28.39375 246.45312 28.39375Q245.20312 28.39375 244.60938 28.83125Q244.03125 29.26875 243.75 30.378124L242.03125 30.14375Q242.26562 29.034374 242.79688 28.3625Q243.32812 27.675 244.34375 27.315624Q245.35938 26.940624 246.70312 26.940624Q248.03125 26.940624 248.85938 27.253124Q249.6875 27.565624 250.07812 28.05Q250.46875 28.51875 250.625 29.2375Q250.71875 29.690624 250.71875 30.8625L250.71875 33.20625Q250.71875 35.659374 250.82812 36.315624Q250.9375 36.95625 251.28125 37.55L249.4375 37.55Q249.17188 37.003124 249.09375 36.26875ZM248.9375 32.346874Q247.98438 32.7375 246.0625 33.003124Q244.98438 33.159374 244.53125 33.3625Q244.09375 33.55 243.84375 33.925Q243.59375 34.3 243.59375 34.76875Q243.59375 35.471874 244.125 35.940624Q244.65625 36.409374 245.6875 36.409374Q246.70312 36.409374 247.48438 35.971874Q248.28125 35.51875 248.65625 34.753124Q248.9375 34.14375 248.9375 32.9875L248.9375 32.346874ZM257.15625 35.971874L257.40625 37.534374Q256.67188 37.690624 256.07812 37.690624Q255.125 37.690624 254.59375 37.39375Q254.07812 37.08125 253.85938 36.596874Q253.64062 36.096874 253.64062 34.51875L253.64062 28.55L252.35938 28.55L252.35938 27.175L253.64062 27.175L253.64062 24.6125L255.39062 23.55L255.39062 27.175L257.15625 27.175L257.15625 28.55L255.39062 28.55L255.39062 34.6125Q255.39062 35.3625 255.48438 35.58125Q255.57812 35.784374 255.78125 35.925Q256.0 36.05 256.39062 36.05Q256.67188 36.05 257.15625 35.971874ZM259.3125 37.55L259.3125 23.2375L261.07812 23.2375L261.07812 28.3625Q262.3125 26.940624 264.1875 26.940624Q265.32812 26.940624 266.17188 27.39375Q267.03125 27.846874 267.39062 28.659374Q267.76562 29.45625 267.76562 30.971874L267.76562 37.55L266.01562 37.55L266.01562 30.971874Q266.01562 29.659374 265.4375 29.065624Q264.85938 28.45625 263.82812 28.45625Q263.04688 28.45625 262.34375 28.8625Q261.65625 29.26875 261.35938 29.971874Q261.07812 30.659374 261.07812 31.878124L261.07812 37.55L259.3125 37.55ZM276.42188 34.20625L278.23438 34.440624Q277.8125 36.01875 276.64062 36.909374Q275.48438 37.784374 273.67188 37.784374Q271.40625 37.784374 270.0625 36.39375Q268.73438 34.9875 268.73438 32.45625Q268.73438 29.83125 270.07812 28.39375Q271.42188 26.940624 273.57812 26.940624Q275.65625 26.940624 276.96875 28.3625Q278.29688 29.76875 278.29688 32.346874Q278.29688 32.503124 278.28125 32.815624L270.54688 32.815624Q270.64062 34.51875 271.51562 35.425Q272.39062 36.33125 273.6875 36.33125Q274.65625 36.33125 275.32812 35.83125Q276.01562 35.315624 276.42188 34.20625ZM270.64062 31.3625L276.4375 31.3625Q276.32812 30.065624 275.78125 29.409374Q274.9375 28.39375 273.59375 28.39375Q272.39062 28.39375 271.5625 29.20625Q270.73438 30.003124 270.64062 31.3625ZM280.29688 37.55L280.29688 27.175L281.875 27.175L281.875 28.753124Q282.48438 27.64375 283.0 27.3Q283.51562 26.940624 284.125 26.940624Q285.01562 26.940624 285.9375 27.503124L285.32812 29.14375Q284.6875 28.753124 284.04688 28.753124Q283.46875 28.753124 283.0 29.1125Q282.54688 29.45625 282.34375 30.065624Q282.0625 31.003124 282.0625 32.1125L282.0625 37.55L280.29688 37.55ZM293.54688 37.55L293.54688 23.2375L298.46875 23.2375Q300.14062 23.2375 301.03125 23.440624Q302.25 23.721874 303.125 24.45625Q304.25 25.425 304.8125 26.909374Q305.375 28.39375 305.375 30.315624Q305.375 31.940624 305.0 33.20625Q304.625 34.45625 304.01562 35.284374Q303.42188 36.1125 302.71875 36.596874Q302.01562 37.065624 301.01562 37.315624Q300.01562 37.55 298.70312 37.55L293.54688 37.55ZM295.4375 35.8625L298.5 35.8625Q299.90625 35.8625 300.70312 35.596874Q301.51562 35.33125 302.0 34.846874Q302.67188 34.175 303.04688 33.05Q303.42188 31.909374 303.42188 30.284374Q303.42188 28.034374 302.6875 26.83125Q301.95312 25.628124 300.89062 25.221874Q300.14062 24.925 298.45312 24.925L295.4375 24.925L295.4375 35.8625ZM307.32812 25.253124L307.32812 23.2375L309.09375 23.2375L309.09375 25.253124L307.32812 25.253124ZM307.32812 37.55L307.32812 27.175L309.09375 27.175L309.09375 37.55L307.32812 37.55ZM310.60938 34.45625L312.35938 34.175Q312.5 35.221874 313.17188 35.784374Q313.84375 36.33125 315.04688 36.33125Q316.25 36.33125 316.82812 35.846874Q317.42188 35.346874 317.42188 34.690624Q317.42188 34.096874 316.90625 33.753124Q316.54688 33.51875 315.10938 33.159374Q313.17188 32.659374 312.42188 32.315624Q311.6875 31.95625 311.29688 31.33125Q310.90625 30.690624 310.90625 29.925Q310.90625 29.2375 311.21875 28.64375Q311.54688 28.05 312.09375 27.659374Q312.5 27.3625 313.20312 27.159374Q313.92188 26.940624 314.73438 26.940624Q315.95312 26.940624 316.875 27.3Q317.79688 27.64375 318.23438 28.253124Q318.67188 28.846874 318.84375 29.846874L317.125 30.08125Q317.0 29.284374 316.4375 28.846874Q315.875 28.39375 314.85938 28.39375Q313.64062 28.39375 313.125 28.8Q312.60938 29.190624 312.60938 29.721874Q312.60938 30.065624 312.82812 30.346874Q313.03125 30.628124 313.5 30.815624Q313.76562 30.909374 315.04688 31.253124Q316.92188 31.753124 317.65625 32.08125Q318.39062 32.39375 318.8125 33.003124Q319.23438 33.596874 319.23438 34.503124Q319.23438 35.378124 318.71875 36.159374Q318.20312 36.940624 317.23438 37.3625Q316.26562 37.784374 315.04688 37.784374Q313.03125 37.784374 311.96875 36.940624Q310.90625 36.096874 310.60938 34.45625ZM325.15625 35.971874L325.40625 37.534374Q324.67188 37.690624 324.07812 37.690624Q323.125 37.690624 322.59375 37.39375Q322.07812 37.08125 321.85938 36.596874Q321.64062 36.096874 321.64062 34.51875L321.64062 28.55L320.35938 28.55L320.35938 27.175L321.64062 27.175L321.64062 24.6125L323.39062 23.55L323.39062 27.175L325.15625 27.175L325.15625 28.55L323.39062 28.55L323.39062 34.6125Q323.39062 35.3625 323.48438 35.58125Q323.57812 35.784374 323.78125 35.925Q324.0 36.05 324.39062 36.05Q324.67188 36.05 325.15625 35.971874ZM327.29688 37.55L327.29688 27.175L328.875 27.175L328.875 28.753124Q329.48438 27.64375 330.0 27.3Q330.51562 26.940624 331.125 26.940624Q332.01562 26.940624 332.9375 27.503124L332.32812 29.14375Q331.6875 28.753124 331.04688 28.753124Q330.46875 28.753124 330.0 29.1125Q329.54688 29.45625 329.34375 30.065624Q329.0625 31.003124 329.0625 32.1125L329.0625 37.55L327.29688 37.55ZM334.32812 25.253124L334.32812 23.2375L336.09375 23.2375L336.09375 25.253124L334.32812 25.253124ZM334.32812 37.55L334.32812 27.175L336.09375 27.175L336.09375 37.55L334.32812 37.55ZM339.9375 37.55L338.3125 37.55L338.3125 23.2375L340.0625 23.2375L340.0625 28.346874Q341.1875 26.940624 342.90625 26.940624Q343.85938 26.940624 344.71875 27.33125Q345.57812 27.721874 346.125 28.425Q346.67188 29.1125 346.98438 30.096874Q347.29688 31.08125 347.29688 32.20625Q347.29688 34.878124 345.98438 36.33125Q344.67188 37.784374 342.82812 37.784374Q340.98438 37.784374 339.9375 36.253124L339.9375 37.55ZM339.92188 32.284374Q339.92188 34.14375 340.42188 34.9875Q341.26562 36.33125 342.67188 36.33125Q343.82812 36.33125 344.65625 35.33125Q345.5 34.33125 345.5 32.346874Q345.5 30.315624 344.6875 29.3625Q343.89062 28.39375 342.75 28.39375Q341.59375 28.39375 340.75 29.39375Q339.92188 30.39375 339.92188 32.284374ZM356.10938 37.55L356.10938 36.01875Q354.90625 37.784374 352.82812 37.784374Q351.90625 37.784374 351.10938 37.440624Q350.3125 37.08125 349.92188 36.55Q349.54688 36.01875 349.39062 35.2375Q349.28125 34.721874 349.28125 33.596874L349.28125 27.175L351.03125 27.175L351.03125 32.925Q351.03125 34.3 351.14062 34.784374Q351.3125 35.471874 351.84375 35.878124Q352.39062 36.26875 353.17188 36.26875Q353.96875 36.26875 354.65625 35.8625Q355.35938 35.45625 355.64062 34.76875Q355.9375 34.065624 355.9375 32.7375L355.9375 27.175L357.6875 27.175L357.6875 37.55L356.10938 37.55ZM363.15625 35.971874L363.40625 37.534374Q362.67188 37.690624 362.07812 37.690624Q361.125 37.690624 360.59375 37.39375Q360.07812 37.08125 359.85938 36.596874Q359.64062 36.096874 359.64062 34.51875L359.64062 28.55L358.35938 28.55L358.35938 27.175L359.64062 27.175L359.64062 24.6125L361.39062 23.55L361.39062 27.175L363.15625 27.175L363.15625 28.55L361.39062 28.55L361.39062 34.6125Q361.39062 35.3625 361.48438 35.58125Q361.57812 35.784374 361.78125 35.925Q362.0 36.05 362.39062 36.05Q362.67188 36.05 363.15625 35.971874ZM365.32812 25.253124L365.32812 23.2375L367.09375 23.2375L367.09375 25.253124L365.32812 25.253124ZM365.32812 37.55L365.32812 27.175L367.09375 27.175L367.09375 37.55L365.32812 37.55ZM368.67188 32.3625Q368.67188 29.4875 370.26562 28.096874Q371.60938 26.940624 373.53125 26.940624Q375.67188 26.940624 377.01562 28.346874Q378.375 29.753124 378.375 32.221874Q378.375 34.221874 377.78125 35.378124Q377.1875 36.51875 376.03125 37.159374Q374.89062 37.784374 373.53125 37.784374Q371.34375 37.784374 370.0 36.39375Q368.67188 34.9875 368.67188 32.3625ZM370.46875 32.3625Q370.46875 34.3625 371.32812 35.346874Q372.20312 36.33125 373.53125 36.33125Q374.84375 36.33125 375.70312 35.346874Q376.57812 34.346874 376.57812 32.3Q376.57812 30.378124 375.70312 29.39375Q374.82812 28.39375 373.53125 28.39375Q372.20312 28.39375 371.32812 29.39375Q370.46875 30.378124 370.46875 32.3625ZM380.3125 37.55L380.3125 27.175L381.90625 27.175L381.90625 28.659374Q383.04688 26.940624 385.20312 26.940624Q386.14062 26.940624 386.92188 27.284374Q387.71875 27.6125 388.10938 28.159374Q388.5 28.70625 388.65625 29.45625Q388.75 29.95625 388.75 31.175L388.75 37.55L386.98438 37.55L386.98438 31.2375Q386.98438 30.159374 386.78125 29.628124Q386.57812 29.096874 386.04688 28.784374Q385.53125 28.471874 384.82812 28.471874Q383.70312 28.471874 382.89062 29.190624Q382.07812 29.89375 382.07812 31.878124L382.07812 37.55L380.3125 37.55Z" fill-rule="nonzero"/></svg>