<svg version="1.1" viewBox="0.0 0.0 600.0 371.0" fill="none" stroke="none" stroke-linecap="square" stroke-miterlimit="10" width="600" height="371" xmlns:xlink="http://www.w3.org/1999/xlink" xmlns="http://www.w3.org/2000/svg"><path fill="#ffffff" d="M0 0L600.0 0L600.0 371.0L0 371.0L0 0Z" fill-rule="nonzero"/><path stroke="#333333" stroke-width="1.0" stroke-linecap="butt" d="M109.5 329.5L581.5 329.5" fill-rule="nonzero"/><path stroke="#cccccc" stroke-width="1.0" stroke-linecap="butt" d="M109.5 240.5L581.5 240.5" fill-rule="nonzero"/><path stroke="#cccccc" stroke-width="1.0" stroke-linecap="butt" d="M109.5 151.5L581.5 151.5" fill-rule="nonzero"/><path stroke="#cccccc" stroke-width="1.0" stroke-linecap="butt" d="M109.5 61.5L581.5 61.5" fill-rule="nonzero"/><path stroke="#e6e6e6" stroke-width="1.0" stroke-linecap="butt" d="M109.5 299.5L581.5 299.5" fill-rule="nonzero"/><path stroke="#e6e6e6" stroke-width="1.0" stroke-linecap="butt" d="M109.5 269.5L581.5 269.5" fill-rule="nonzero"/><path stroke="#e6e6e6" stroke-width="1.0" stroke-linecap="butt" d="M109.5 210.5L581.5 210.5" fill-rule="nonzero"/><path stroke="#e6e6e6" stroke-width="1.0" stroke-linecap="butt" d="M109.5 180.5L581.5 180.5" fill-rule="nonzero"/><path stroke="#e6e6e6" stroke-width="1.0" stroke-linecap="butt" d="M109.5 121.5L581.5 121.5" fill-rule="nonzero"/><path stroke="#e6e6e6" stroke-width="1.0" stroke-linecap="butt" d="M109.5 91.5L581.5 91.5" fill-rule="nonzero"/><path stroke="#000000" stroke-width="1.0" stroke-linecap="butt" d="M109.5 329.5L109.5 61.5" fill-rule="nonzero"/><clipPath id="id_0"><path d="M109.55 61.916668L581.45 61.916668L581.45 329.45L109.55 329.45L109.55 61.916668Z" clip-rule="nonzero"/></clipPath><path stroke="#000000" stroke-width="2.0" stroke-linecap="butt" stroke-opacity="0.0" clip-path="url(#id_0)" d="M251.0 329.0L159.0 329.0L159.0 84.0C159.0 82.89543 159.89543 82.0 161.0 82.0L249.0 82.0C250.10457 82.0 251.0 82.89543 251.0 84.0Z" fill-rule="nonzero"/><path fill="#4285f4" clip-path="url(#id_0)" d="M251.0 329.0L159.0 329.0L159.0 84.0C159.0 82.89543 159.89543 82.0 161.0 82.0L249.0 82.0C250.10457 82.0 251.0 82.89543 251.0 84.0Z" fill-rule="nonzero"/><path stroke="#000000" stroke-width="2.0" stroke-linecap="butt" stroke-opacity="0.0" clip-path="url(#id_0)" d="M392.0 329.0L300.0 329.0L300.0 262.0C300.0 260.89542 300.89542 260.0 302.0 260.0L390.0 260.0C391.10458 260.0 392.0 260.89542 392.0 262.0Z" fill-rule="nonzero"/><path fill="#4285f4" clip-path="url(#id_0)" d="M392.0 329.0L300.0 329.0L300.0 262.0C300.0 260.89542 300.89542 260.0 302.0 260.0L390.0 260.0C391.10458 260.0 392.0 260.89542 392.0 262.0Z" fill-rule="nonzero"/><path stroke="#000000" stroke-width="2.0" stroke-linecap="butt" stroke-opacity="0.0" clip-path="url(#id_0)" d="M532.0 329.0L440.0 329.0L440.0 290.0C440.0 288.89542 440.89542 288.0 442.0 288.0L530.0 288.0C531.10455 288.0 532.0 288.89542 532.0 290.0Z" fill-rule="nonzero"/><path fill="#4285f4" clip-path="url(#id_0)" d="M532.0 329.0L440.0 329.0L440.0 290.0C440.0 288.89542 440.89542 288.0 442.0 288.0L530.0 288.0C531.10455 288.0 532.0 288.89542 532.0 290.0Z" fill-rule="nonzero"/><path stroke="#000000" stroke-width="1.0" stroke-linecap="butt" d="M106.5 299.5L112.5 299.5" fill-rule="nonzero"/><path stroke="#000000" stroke-width="1.0" stroke-linecap="butt" d="M106.5 269.5L112.5 269.5" fill-rule="nonzero"/><path stroke="#000000" stroke-width="1.0" stroke-linecap="butt" d="M106.5 210.5L112.5 210.5" fill-rule="nonzero"/><path stroke="#000000" stroke-width="1.0" stroke-linecap="butt" d="M106.5 180.5L112.5 180.5" fill-rule="nonzero"/><path stroke="#000000" stroke-width="1.0" stroke-linecap="butt" d="M106.5 121.5L112.5 121.5" fill-rule="nonzero"/><path stroke="#000000" stroke-width="1.0" stroke-linecap="butt" d="M106.5 91.5L112.5 91.5" fill-rule="nonzero"/><path stroke="#000000" stroke-width="1.0" stroke-linecap="butt" d="M103.5 329.5L115.5 329.5" fill-rule="nonzero"/><path stroke="#000000" stroke-width="1.0" stroke-linecap="butt" d="M103.5 240.5L115.5 240.5" fill-rule="nonzero"/><path stroke="#000000" stroke-width="1.0" stroke-linecap="butt" d="M103.5 151.5L115.5 151.5" fill-rule="nonzero"/><path stroke="#000000" stroke-width="1.0" stroke-linecap="butt" d="M103.5 61.5L115.5 61.5" fill-rule="nonzero"/><path fill="#000000" d="M31.721888 230.98021L28.815638 230.38646L28.815638 231.54271L27.784388 231.54271L27.784388 230.18333L25.315638 229.66771L25.315638 231.54271L24.284388 231.54271L24.284388 229.46458L21.362513 228.87083L21.362513 227.85521L24.284388 228.44896L24.284388 226.29271L21.362513 225.69896L21.362513 224.66771L24.284388 225.26146L24.284388 224.07396L25.315638 224.07396L25.315638 225.46458L27.784388 225.98021L27.784388 224.07396L28.815638 224.07396L28.815638 226.18333L31.721888 226.77708L31.721888 227.79271L28.815638 227.21458L28.815638 229.35521L31.721888 229.94896L31.721888 230.98021ZM27.784388 229.15208L27.784388 227.01146L25.315638 226.49583L25.315638 228.65208L27.784388 229.15208ZM31.550013 222.52708L21.534388 222.52708L21.534388 215.77708L22.706263 215.77708L22.706263 221.21458L25.815638 221.21458L25.815638 216.51146L27.003138 216.51146L27.003138 221.21458L31.550013 221.21458L31.550013 222.52708ZM31.550013 213.77708L24.284388 213.77708L24.284388 212.66771L25.393763 212.66771Q24.612513 212.24583 24.378138 211.88646Q24.128138 211.52708 24.128138 211.08958Q24.128138 210.46458 24.518763 209.82396L25.659388 210.24583Q25.393763 210.69896 25.393763 211.15208Q25.393763 211.55833 25.643763 211.88646Q25.878138 212.19896 26.315638 212.33958Q26.971888 212.54271 27.753138 212.54271L31.550013 212.54271L31.550013 213.77708ZM30.659388 204.02708Q31.237513 204.69896 31.487513 205.33958Q31.721888 205.96458 31.721888 206.69896Q31.721888 207.88646 31.143763 208.54271Q30.550013 209.18333 29.628138 209.18333Q29.096888 209.18333 28.659388 208.94896Q28.221888 208.69896 27.956263 208.30833Q27.690638 207.90208 27.550013 207.41771Q27.456263 207.05833 27.362513 206.32396Q27.190638 204.82396 26.940638 204.12083Q26.690638 204.12083 26.628138 204.12083Q25.862513 204.12083 25.565638 204.46458Q25.143763 204.93333 25.143763 205.87083Q25.143763 206.73021 25.456263 207.15208Q25.753138 207.55833 26.518763 207.76146L26.362513 208.96458Q25.581263 208.80833 25.112513 208.43333Q24.643763 208.04271 24.393763 207.33958Q24.128138 206.62083 24.128138 205.68333Q24.128138 204.76146 24.346888 204.18333Q24.565638 203.60521 24.893763 203.33958Q25.221888 203.05833 25.737513 202.94896Q26.050013 202.88646 26.862513 202.88646L28.503138 202.88646Q30.221888 202.88646 30.675013 202.80833Q31.128138 202.73021 31.550013 202.49583L31.550013 203.77708Q31.159388 203.96458 30.659388 204.02708ZM27.909388 204.12083Q28.175013 204.79271 28.378138 206.13646Q28.487513 206.88646 28.628138 207.21458Q28.753138 207.52708 29.018763 207.69896Q29.284388 207.87083 29.596888 207.87083Q30.096888 207.87083 30.425013 207.49583Q30.753138 207.12083 30.753138 206.40208Q30.753138 205.68333 30.440638 205.13646Q30.128138 204.58958 29.581263 204.32396Q29.175013 204.12083 28.362513 204.12083L27.909388 204.12083ZM31.550013 200.76146L24.284388 200.76146L24.284388 199.65208L25.315638 199.65208Q24.768763 199.32396 24.456263 198.76146Q24.128138 198.18333 24.128138 197.46458Q24.128138 196.65208 24.471888 196.13646Q24.800013 195.62083 25.393763 195.40208Q24.128138 194.54271 24.128138 193.16771Q24.128138 192.08958 24.721888 191.51146Q25.315638 190.91771 26.565638 190.91771L31.550013 190.91771L31.550013 192.15208L26.971888 192.15208Q26.237513 192.15208 25.909388 192.27708Q25.581263 192.38646 25.393763 192.69896Q25.190638 193.01146 25.190638 193.43333Q25.190638 194.19896 25.706263 194.71458Q26.206263 195.21458 27.331263 195.21458L31.550013 195.21458L31.550013 196.44896L26.831263 196.44896Q26.018763 196.44896 25.612513 196.74583Q25.190638 197.04271 25.190638 197.73021Q25.190638 198.24583 25.471888 198.69896Q25.737513 199.13646 26.268763 199.33958Q26.784388 199.52708 27.784388 199.52708L31.550013 199.52708L31.550013 200.76146ZM29.206263 184.79271L29.362513 183.51146Q30.487513 183.82396 31.112513 184.63646Q31.721888 185.44896 31.721888 186.71458Q31.721888 188.30833 30.737513 189.24583Q29.753138 190.16771 27.987513 190.16771Q26.143763 190.16771 25.143763 189.23021Q24.128138 188.27708 24.128138 186.77708Q24.128138 185.32396 25.128138 184.40208Q26.112513 183.48021 27.909388 183.48021Q28.018763 183.48021 28.237513 183.48021L28.237513 188.90208Q29.425013 188.82396 30.065638 188.23021Q30.706263 187.62083 30.706263 186.69896Q30.706263 186.02708 30.346888 185.55833Q29.987513 185.07396 29.206263 184.79271ZM27.221888 188.82396L27.221888 184.77708Q26.300013 184.85521 25.846888 185.24583Q25.143763 185.82396 25.143763 186.76146Q25.143763 187.62083 25.706263 188.19896Q26.268763 188.76146 27.221888 188.82396ZM29.378138 182.24583L29.190638 181.04271Q29.925013 180.93333 30.315638 180.46458Q30.706263 179.99583 30.706263 179.15208Q30.706263 178.30833 30.362513 177.90208Q30.018763 177.48021 29.550013 177.48021Q29.128138 177.48021 28.893763 177.85521Q28.721888 178.10521 28.471888 179.10521Q28.128138 180.46458 27.878138 180.99583Q27.628138 181.51146 27.190638 181.77708Q26.753138 182.04271 26.221888 182.04271Q25.737513 182.04271 25.331263 181.82396Q24.909388 181.60521 24.628138 181.21458Q24.425013 180.93333 24.284388 180.44896Q24.128138 179.94896 24.128138 179.37083Q24.128138 178.52708 24.378138 177.88646Q24.612513 177.23021 25.034388 176.91771Q25.456263 176.60521 26.159388 176.49583L26.331263 177.69896Q25.768763 177.77708 25.456263 178.18333Q25.143763 178.57396 25.143763 179.29271Q25.143763 180.13646 25.425013 180.49583Q25.690638 180.85521 26.081263 180.85521Q26.315638 180.85521 26.503138 180.71458Q26.706263 180.55833 26.831263 180.23021Q26.893763 180.05833 27.143763 179.15208Q27.503138 177.83958 27.721888 177.32396Q27.940638 176.80833 28.362513 176.52708Q28.784388 176.23021 29.409388 176.23021Q30.034388 176.23021 30.581263 176.58958Q31.112513 176.93333 31.425013 177.62083Q31.721888 178.29271 31.721888 179.15208Q31.721888 180.55833 31.128138 181.30833Q30.534388 182.04271 29.378138 182.24583Z" fill-rule="nonzero"/><path fill="#000000" d="M91.05 329.21564Q91.05 327.6844 91.3625 326.7625Q91.675 325.825 92.28438 325.325Q92.90938 324.825 93.84688 324.825Q94.53438 324.825 95.05 325.10626Q95.58125 325.3875 95.925 325.91876Q96.26875 326.4344 96.45625 327.1844Q96.64375 327.9344 96.64375 329.21564Q96.64375 330.73126 96.33125 331.65314Q96.03438 332.575 95.40938 333.09064Q94.8 333.59064 93.84688 333.59064Q92.6125 333.59064 91.89375 332.7Q91.05 331.6375 91.05 329.21564ZM92.12813 329.21564Q92.12813 331.325 92.62813 332.02814Q93.12813 332.73126 93.84688 332.73126Q94.58125 332.73126 95.06563 332.02814Q95.56563 331.325 95.56563 329.21564Q95.56563 327.09064 95.06563 326.40314Q94.58125 325.7 93.83125 325.7Q93.1125 325.7 92.675 326.3094Q92.12813 327.09064 92.12813 329.21564Z" fill-rule="nonzero"/><path fill="#000000" d="M63.05 242.02222L64.15938 241.92847Q64.28438 242.74097 64.72188 243.14722Q65.175 243.55347 65.81563 243.55347Q66.56563 243.55347 67.09688 242.97534Q67.62813 242.39722 67.62813 241.45972Q67.62813 240.55347 67.1125 240.03784Q66.6125 239.50659 65.78438 239.50659Q65.28438 239.50659 64.8625 239.74097Q64.45625 239.97534 64.22188 240.33472L63.2375 240.20972L64.06563 235.80347L68.34688 235.80347L68.34688 236.80347L64.90938 236.80347L64.45625 239.11597Q65.22188 238.56909 66.06563 238.56909Q67.19063 238.56909 67.95625 239.35034Q68.7375 240.13159 68.7375 241.36597Q68.7375 242.52222 68.06563 243.38159Q67.2375 244.41284 65.81563 244.41284Q64.64375 244.41284 63.89375 243.75659Q63.159374 243.10034 63.05 242.02222ZM70.05 240.03784Q70.05 238.50659 70.3625 237.58472Q70.675 236.64722 71.28438 236.14722Q71.90938 235.64722 72.84688 235.64722Q73.53438 235.64722 74.05 235.92847Q74.58125 236.20972 74.925 236.74097Q75.26875 237.25659 75.45625 238.00659Q75.64375 238.75659 75.64375 240.03784Q75.64375 241.55347 75.33125 242.47534Q75.03438 243.39722 74.40938 243.91284Q73.8 244.41284 72.84688 244.41284Q71.6125 244.41284 70.89375 243.52222Q70.05 242.45972 70.05 240.03784ZM71.12813 240.03784Q71.12813 242.14722 71.62813 242.85034Q72.12813 243.55347 72.84688 243.55347Q73.58125 243.55347 74.06563 242.85034Q74.56563 242.14722 74.56563 240.03784Q74.56563 237.91284 74.06563 237.22534Q73.58125 236.52222 72.83125 236.52222Q72.1125 236.52222 71.675 237.13159Q71.12813 237.91284 71.12813 240.03784ZM77.05 240.03784Q77.05 238.50659 77.3625 237.58472Q77.675 236.64722 78.28438 236.14722Q78.90938 235.64722 79.84688 235.64722Q80.53438 235.64722 81.05 235.92847Q81.58125 236.20972 81.925 236.74097Q82.26875 237.25659 82.45625 238.00659Q82.64375 238.75659 82.64375 240.03784Q82.64375 241.55347 82.33125 242.47534Q82.03438 243.39722 81.40938 243.91284Q80.8 244.41284 79.84688 244.41284Q78.6125 244.41284 77.89375 243.52222Q77.05 242.45972 77.05 240.03784ZM78.12813 240.03784Q78.12813 242.14722 78.62813 242.85034Q79.12813 243.55347 79.84688 243.55347Q80.58125 243.55347 81.06563 242.85034Q81.56563 242.14722 81.56563 240.03784Q81.56563 237.91284 81.06563 237.22534Q80.58125 236.52222 79.83125 236.52222Q79.1125 236.52222 78.675 237.13159Q78.12813 237.91284 78.12813 240.03784ZM84.05 240.03784Q84.05 238.50659 84.3625 237.58472Q84.675 236.64722 85.28438 236.14722Q85.90938 235.64722 86.84688 235.64722Q87.53438 235.64722 88.05 235.92847Q88.58125 236.20972 88.925 236.74097Q89.26875 237.25659 89.45625 238.00659Q89.64375 238.75659 89.64375 240.03784Q89.64375 241.55347 89.33125 242.47534Q89.03438 243.39722 88.40938 243.91284Q87.8 244.41284 86.84688 244.41284Q85.6125 244.41284 84.89375 243.52222Q84.05 242.45972 84.05 240.03784ZM85.12813 240.03784Q85.12813 242.14722 85.62813 242.85034Q86.12813 243.55347 86.84688 243.55347Q87.58125 243.55347 88.06563 242.85034Q88.56563 242.14722 88.56563 240.03784Q88.56563 237.91284 88.06563 237.22534Q87.58125 236.52222 86.83125 236.52222Q86.1125 236.52222 85.675 237.13159Q85.12813 237.91284 85.12813 240.03784ZM91.05 240.03784Q91.05 238.50659 91.3625 237.58472Q91.675 236.64722 92.28438 236.14722Q92.90938 235.64722 93.84688 235.64722Q94.53438 235.64722 95.05 235.92847Q95.58125 236.20972 95.925 236.74097Q96.26875 237.25659 96.45625 238.00659Q96.64375 238.75659 96.64375 240.03784Q96.64375 241.55347 96.33125 242.47534Q96.03438 243.39722 95.40938 243.91284Q94.8 244.41284 93.84688 244.41284Q92.6125 244.41284 91.89375 243.52222Q91.05 242.45972 91.05 240.03784ZM92.12813 240.03784Q92.12813 242.14722 92.62813 242.85034Q93.12813 243.55347 93.84688 243.55347Q94.58125 243.55347 95.06563 242.85034Q95.56563 242.14722 95.56563 240.03784Q95.56563 237.91284 95.06563 237.22534Q94.58125 236.52222 93.83125 236.52222Q93.1125 236.52222 92.675 237.13159Q92.12813 237.91284 92.12813 240.03784Z" fill-rule="nonzero"/><path fill="#000000" d="M60.01875 155.09445L58.971874 155.09445L58.971874 148.3757Q58.58125 148.73508 57.95625 149.11008Q57.346874 149.46945 56.8625 149.64133L56.8625 148.6257Q57.7375 148.20383 58.39375 147.6257Q59.065624 147.03195 59.346874 146.46945L60.01875 146.46945L60.01875 155.09445ZM63.05 150.86008Q63.05 149.32883 63.3625 148.40695Q63.675 147.46945 64.28438 146.96945Q64.90938 146.46945 65.84688 146.46945Q66.53438 146.46945 67.05 146.7507Q67.58125 147.03195 67.925 147.5632Q68.26875 148.07883 68.45625 148.82883Q68.64375 149.57883 68.64375 150.86008Q68.64375 152.3757 68.33125 153.29758Q68.03438 154.21945 67.40938 154.73508Q66.8 155.23508 65.84688 155.23508Q64.6125 155.23508 63.89375 154.34445Q63.05 153.28195 63.05 150.86008ZM64.12813 150.86008Q64.12813 152.96945 64.62813 153.67258Q65.12813 154.3757 65.84688 154.3757Q66.58125 154.3757 67.06563 153.67258Q67.56563 152.96945 67.56563 150.86008Q67.56563 148.73508 67.06563 148.04758Q66.58125 147.34445 65.83125 147.34445Q65.1125 147.34445 64.675 147.95383Q64.12813 148.73508 64.12813 150.86008ZM70.05 150.86008Q70.05 149.32883 70.3625 148.40695Q70.675 147.46945 71.28438 146.96945Q71.90938 146.46945 72.84688 146.46945Q73.53438 146.46945 74.05 146.7507Q74.58125 147.03195 74.925 147.5632Q75.26875 148.07883 75.45625 148.82883Q75.64375 149.57883 75.64375 150.86008Q75.64375 152.3757 75.33125 153.29758Q75.03438 154.21945 74.40938 154.73508Q73.8 155.23508 72.84688 155.23508Q71.6125 155.23508 70.89375 154.34445Q70.05 153.28195 70.05 150.86008ZM71.12813 150.86008Q71.12813 152.96945 71.62813 153.67258Q72.12813 154.3757 72.84688 154.3757Q73.58125 154.3757 74.06563 153.67258Q74.56563 152.96945 74.56563 150.86008Q74.56563 148.73508 74.06563 148.04758Q73.58125 147.34445 72.83125 147.34445Q72.1125 147.34445 71.675 147.95383Q71.12813 148.73508 71.12813 150.86008ZM77.05 150.86008Q77.05 149.32883 77.3625 148.40695Q77.675 147.46945 78.28438 146.96945Q78.90938 146.46945 79.84688 146.46945Q80.53438 146.46945 81.05 146.7507Q81.58125 147.03195 81.925 147.5632Q82.26875 148.07883 82.45625 148.82883Q82.64375 149.57883 82.64375 150.86008Q82.64375 152.3757 82.33125 153.29758Q82.03438 154.21945 81.40938 154.73508Q80.8 155.23508 79.84688 155.23508Q78.6125 155.23508 77.89375 154.34445Q77.05 153.28195 77.05 150.86008ZM78.12813 150.86008Q78.12813 152.96945 78.62813 153.67258Q79.12813 154.3757 79.84688 154.3757Q80.58125 154.3757 81.06563 153.67258Q81.56563 152.96945 81.56563 150.86008Q81.56563 148.73508 81.06563 148.04758Q80.58125 147.34445 79.83125 147.34445Q79.1125 147.34445 78.675 147.95383Q78.12813 148.73508 78.12813 150.86008ZM84.05 150.86008Q84.05 149.32883 84.3625 148.40695Q84.675 147.46945 85.28438 146.96945Q85.90938 146.46945 86.84688 146.46945Q87.53438 146.46945 88.05 146.7507Q88.58125 147.03195 88.925 147.5632Q89.26875 148.07883 89.45625 148.82883Q89.64375 149.57883 89.64375 150.86008Q89.64375 152.3757 89.33125 153.29758Q89.03438 154.21945 88.40938 154.73508Q87.8 155.23508 86.84688 155.23508Q85.6125 155.23508 84.89375 154.34445Q84.05 153.28195 84.05 150.86008ZM85.12813 150.86008Q85.12813 152.96945 85.62813 153.67258Q86.12813 154.3757 86.84688 154.3757Q87.58125 154.3757 88.06563 153.67258Q88.56563 152.96945 88.56563 150.86008Q88.56563 148.73508 88.06563 148.04758Q87.58125 147.34445 86.83125 147.34445Q86.1125 147.34445 85.675 147.95383Q85.12813 148.73508 85.12813 150.86008ZM91.05 150.86008Q91.05 149.32883 91.3625 148.40695Q91.675 147.46945 92.28438 146.96945Q92.90938 146.46945 93.84688 146.46945Q94.53438 146.46945 95.05 146.7507Q95.58125 147.03195 95.925 147.5632Q96.26875 148.07883 96.45625 148.82883Q96.64375 149.57883 96.64375 150.86008Q96.64375 152.3757 96.33125 153.29758Q96.03438 154.21945 95.40938 154.73508Q94.8 155.23508 93.84688 155.23508Q92.6125 155.23508 91.89375 154.34445Q91.05 153.28195 91.05 150.86008ZM92.12813 150.86008Q92.12813 152.96945 92.62813 153.67258Q93.12813 154.3757 93.84688 154.3757Q94.58125 154.3757 95.06563 153.67258Q95.56563 152.96945 95.56563 150.86008Q95.56563 148.73508 95.06563 148.04758Q94.58125 147.34445 93.83125 147.34445Q93.1125 147.34445 92.675 147.95383Q92.12813 148.73508 92.12813 150.86008Z" fill-rule="nonzero"/><path fill="#000000" d="M60.01875 65.916664L58.971874 65.916664L58.971874 59.197914Q58.58125 59.55729 57.95625 59.93229Q57.346874 60.291664 56.8625 60.46354L56.8625 59.447914Q57.7375 59.02604 58.39375 58.447914Q59.065624 57.854164 59.346874 57.291664L60.01875 57.291664L60.01875 65.916664ZM63.05 63.666664L64.15938 63.572914Q64.28438 64.385414 64.72188 64.791664Q65.175 65.197914 65.81563 65.197914Q66.56563 65.197914 67.09688 64.61979Q67.62813 64.041664 67.62813 63.104164Q67.62813 62.197914 67.1125 61.68229Q66.6125 61.15104 65.78438 61.15104Q65.28438 61.15104 64.8625 61.385414Q64.45625 61.61979 64.22188 61.979164L63.2375 61.854164L64.06563 57.447914L68.34688 57.447914L68.34688 58.447914L64.90938 58.447914L64.45625 60.760414Q65.22188 60.21354 66.06563 60.21354Q67.19063 60.21354 67.95625 60.99479Q68.7375 61.77604 68.7375 63.010414Q68.7375 64.166664 68.06563 65.02604Q67.2375 66.05729 65.81563 66.05729Q64.64375 66.05729 63.89375 65.40104Q63.159374 64.74479 63.05 63.666664ZM70.05 61.68229Q70.05 60.15104 70.3625 59.229164Q70.675 58.291664 71.28438 57.791664Q71.90938 57.291664 72.84688 57.291664Q73.53438 57.291664 74.05 57.572914Q74.58125 57.854164 74.925 58.385414Q75.26875 58.90104 75.45625 59.65104Q75.64375 60.40104 75.64375 61.68229Q75.64375 63.197914 75.33125 64.11979Q75.03438 65.041664 74.40938 65.55729Q73.8 66.05729 72.84688 66.05729Q71.6125 66.05729 70.89375 65.166664Q70.05 64.104164 70.05 61.68229ZM71.12813 61.68229Q71.12813 63.791664 71.62813 64.49479Q72.12813 65.197914 72.84688 65.197914Q73.58125 65.197914 74.06563 64.49479Q74.56563 63.791664 74.56563 61.68229Q74.56563 59.55729 74.06563 58.86979Q73.58125 58.166664 72.83125 58.166664Q72.1125 58.166664 71.675 58.77604Q71.12813 59.55729 71.12813 61.68229ZM77.05 61.68229Q77.05 60.15104 77.3625 59.229164Q77.675 58.291664 78.28438 57.791664Q78.90938 57.291664 79.84688 57.291664Q80.53438 57.291664 81.05 57.572914Q81.58125 57.854164 81.925 58.385414Q82.26875 58.90104 82.45625 59.65104Q82.64375 60.40104 82.64375 61.68229Q82.64375 63.197914 82.33125 64.11979Q82.03438 65.041664 81.40938 65.55729Q80.8 66.05729 79.84688 66.05729Q78.6125 66.05729 77.89375 65.166664Q77.05 64.104164 77.05 61.68229ZM78.12813 61.68229Q78.12813 63.791664 78.62813 64.49479Q79.12813 65.197914 79.84688 65.197914Q80.58125 65.197914 81.06563 64.49479Q81.56563 63.791664 81.56563 61.68229Q81.56563 59.55729 81.06563 58.86979Q80.58125 58.166664 79.83125 58.166664Q79.1125 58.166664 78.675 58.77604Q78.12813 59.55729 78.12813 61.68229ZM84.05 61.68229Q84.05 60.15104 84.3625 59.229164Q84.675 58.291664 85.28438 57.791664Q85.90938 57.291664 86.84688 57.291664Q87.53438 57.291664 88.05 57.572914Q88.58125 57.854164 88.925 58.385414Q89.26875 58.90104 89.45625 59.65104Q89.64375 60.40104 89.64375 61.68229Q89.64375 63.197914 89.33125 64.11979Q89.03438 65.041664 88.40938 65.55729Q87.8 66.05729 86.84688 66.05729Q85.6125 66.05729 84.89375 65.166664Q84.05 64.104164 84.05 61.68229ZM85.12813 61.68229Q85.12813 63.791664 85.62813 64.49479Q86.12813 65.197914 86.84688 65.197914Q87.58125 65.197914 88.06563 64.49479Q88.56563 63.791664 88.56563 61.68229Q88.56563 59.55729 88.06563 58.86979Q87.58125 58.166664 86.83125 58.166664Q86.1125 58.166664 85.675 58.77604Q85.12813 59.55729 85.12813 61.68229ZM91.05 61.68229Q91.05 60.15104 91.3625 59.229164Q91.675 58.291664 92.28438 57.791664Q92.90938 57.291664 93.84688 57.291664Q94.53438 57.291664 95.05 57.572914Q95.58125 57.854164 95.925 58.385414Q96.26875 58.90104 96.45625 59.65104Q96.64375 60.40104 96.64375 61.68229Q96.64375 63.197914 96.33125 64.11979Q96.03438 65.041664 95.40938 65.55729Q94.8 66.05729 93.84688 66.05729Q92.6125 66.05729 91.89375 65.166664Q91.05 64.104164 91.05 61.68229ZM92.12813 61.68229Q92.12813 63.791664 92.62813 64.49479Q93.12813 65.197914 93.84688 65.197914Q94.58125 65.197914 95.06563 64.49479Q95.56563 63.791664 95.56563 61.68229Q95.56563 59.55729 95.06563 58.86979Q94.58125 58.166664 93.83125 58.166664Q93.1125 58.166664 92.675 58.77604Q92.12813 59.55729 92.12813 61.68229Z" fill-rule="nonzero"/><path fill="#000000" d="M195.8687 345.9344L197.19682 346.27814Q196.77495 347.90314 195.6812 348.7625Q194.60307 349.6219 193.04057 349.6219Q191.41557 349.6219 190.39995 348.96564Q189.38432 348.29376 188.85307 347.04376Q188.33745 345.79376 188.33745 344.35626Q188.33745 342.79376 188.9312 341.6375Q189.52495 340.46564 190.63432 339.8719Q191.7437 339.2625 193.0562 339.2625Q194.57182 339.2625 195.58745 340.02814Q196.6187 340.79376 197.02495 342.16876L195.71245 342.48126Q195.3687 341.3875 194.69682 340.8875Q194.04057 340.3875 193.04057 340.3875Q191.88432 340.3875 191.10307 340.95Q190.32182 341.4969 190.00932 342.4344Q189.69682 343.3719 189.69682 344.35626Q189.69682 345.6375 190.07182 346.59064Q190.44682 347.54376 191.22807 348.0125Q192.00932 348.48126 192.9312 348.48126Q194.04057 348.48126 194.8062 347.84064Q195.58745 347.2 195.8687 345.9344ZM198.52495 349.45L198.52495 339.4344L199.75932 339.4344L199.75932 349.45L198.52495 349.45ZM206.52495 347.10626L207.8062 347.2625Q207.4937 348.3875 206.6812 349.0125Q205.8687 349.6219 204.60307 349.6219Q203.00932 349.6219 202.07182 348.6375Q201.14995 347.65314 201.14995 345.8875Q201.14995 344.04376 202.08745 343.04376Q203.04057 342.02814 204.54057 342.02814Q205.9937 342.02814 206.91557 343.02814Q207.83745 344.0125 207.83745 345.8094Q207.83745 345.91876 207.83745 346.1375L202.41557 346.1375Q202.4937 347.325 203.08745 347.96564Q203.69682 348.60626 204.6187 348.60626Q205.29057 348.60626 205.75932 348.2469Q206.2437 347.8875 206.52495 347.10626ZM202.4937 345.1219L206.54057 345.1219Q206.46245 344.2 206.07182 343.7469Q205.4937 343.04376 204.5562 343.04376Q203.69682 343.04376 203.1187 343.60626Q202.5562 344.16876 202.4937 345.1219ZM214.29057 348.5594Q213.6187 349.1375 212.97807 349.3875Q212.35307 349.6219 211.6187 349.6219Q210.4312 349.6219 209.77495 349.04376Q209.13432 348.45 209.13432 347.52814Q209.13432 346.9969 209.3687 346.5594Q209.6187 346.1219 210.00932 345.85626Q210.41557 345.59064 210.89995 345.45Q211.25932 345.35626 211.9937 345.2625Q213.4937 345.09064 214.19682 344.84064Q214.19682 344.59064 214.19682 344.52814Q214.19682 343.7625 213.85307 343.46564Q213.38432 343.04376 212.44682 343.04376Q211.58745 343.04376 211.16557 343.35626Q210.75932 343.65314 210.5562 344.41876L209.35307 344.2625Q209.50932 343.48126 209.88432 343.0125Q210.27495 342.54376 210.97807 342.29376Q211.69682 342.02814 212.63432 342.02814Q213.5562 342.02814 214.13432 342.2469Q214.71245 342.46564 214.97807 342.79376Q215.25932 343.1219 215.3687 343.6375Q215.4312 343.95 215.4312 344.7625L215.4312 346.40314Q215.4312 348.1219 215.50932 348.575Q215.58745 349.02814 215.82182 349.45L214.54057 349.45Q214.35307 349.0594 214.29057 348.5594ZM214.19682 345.8094Q213.52495 346.075 212.1812 346.27814Q211.4312 346.3875 211.10307 346.52814Q210.79057 346.65314 210.6187 346.91876Q210.44682 347.1844 210.44682 347.4969Q210.44682 347.9969 210.82182 348.325Q211.19682 348.65314 211.91557 348.65314Q212.63432 348.65314 213.1812 348.34064Q213.72807 348.02814 213.9937 347.48126Q214.19682 347.075 214.19682 346.2625L214.19682 345.8094ZM217.54057 349.45L217.54057 342.1844L218.64995 342.1844L218.64995 343.29376Q219.07182 342.5125 219.4312 342.27814Q219.79057 342.02814 220.22807 342.02814Q220.85307 342.02814 221.4937 342.41876L221.07182 343.5594Q220.6187 343.29376 220.16557 343.29376Q219.75932 343.29376 219.4312 343.54376Q219.1187 343.77814 218.97807 344.21564Q218.77495 344.8719 218.77495 345.65314L218.77495 349.45L217.54057 349.45Z" fill-rule="nonzero"/><path fill="#000000" d="M332.09375 349.45L332.09375 339.4344L336.54688 339.4344Q337.89062 339.4344 338.57812 339.7Q339.28125 339.96564 339.6875 340.65314Q340.10938 341.34064 340.10938 342.16876Q340.10938 343.23126 339.42188 343.96564Q338.73438 344.6844 337.29688 344.8875Q337.8125 345.1375 338.09375 345.3875Q338.67188 345.91876 339.1875 346.71564L340.9375 349.45L339.26562 349.45L337.9375 347.3719Q337.35938 346.46564 336.98438 345.9969Q336.60938 345.5125 336.3125 345.325Q336.01562 345.1219 335.70312 345.04376Q335.48438 344.9969 334.96875 344.9969L333.42188 344.9969L333.42188 349.45L332.09375 349.45ZM333.42188 343.85626L336.28125 343.85626Q337.1875 343.85626 337.70312 343.66876Q338.21875 343.48126 338.48438 343.075Q338.75 342.65314 338.75 342.16876Q338.75 341.45 338.23438 340.9969Q337.71875 340.52814 336.59375 340.52814L333.42188 340.52814L333.42188 343.85626ZM346.65625 348.5594Q345.98438 349.1375 345.34375 349.3875Q344.71875 349.6219 343.98438 349.6219Q342.79688 349.6219 342.14062 349.04376Q341.5 348.45 341.5 347.52814Q341.5 346.9969 341.73438 346.5594Q341.98438 346.1219 342.375 345.85626Q342.78125 345.59064 343.26562 345.45Q343.625 345.35626 344.35938 345.2625Q345.85938 345.09064 346.5625 344.84064Q346.5625 344.59064 346.5625 344.52814Q346.5625 343.7625 346.21875 343.46564Q345.75 343.04376 344.8125 343.04376Q343.95312 343.04376 343.53125 343.35626Q343.125 343.65314 342.92188 344.41876L341.71875 344.2625Q341.875 343.48126 342.25 343.0125Q342.64062 342.54376 343.34375 342.29376Q344.0625 342.02814 345.0 342.02814Q345.92188 342.02814 346.5 342.2469Q347.07812 342.46564 347.34375 342.79376Q347.625 343.1219 347.73438 343.6375Q347.79688 343.95 347.79688 344.7625L347.79688 346.40314Q347.79688 348.1219 347.875 348.575Q347.95312 349.02814 348.1875 349.45L346.90625 349.45Q346.71875 349.0594 346.65625 348.5594ZM346.5625 345.8094Q345.89062 346.075 344.54688 346.27814Q343.79688 346.3875 343.46875 346.52814Q343.15625 346.65314 342.98438 346.91876Q342.8125 347.1844 342.8125 347.4969Q342.8125 347.9969 343.1875 348.325Q343.5625 348.65314 344.28125 348.65314Q345.0 348.65314 345.54688 348.34064Q346.09375 348.02814 346.35938 347.48126Q346.5625 347.075 346.5625 346.2625L346.5625 345.8094ZM349.9375 340.84064L349.9375 339.4344L351.15625 339.4344L351.15625 340.84064L349.9375 340.84064ZM349.9375 349.45L349.9375 342.1844L351.15625 342.1844L351.15625 349.45L349.9375 349.45ZM352.92188 349.45L352.92188 342.1844L354.03125 342.1844L354.03125 343.21564Q354.82812 342.02814 356.34375 342.02814Q357.0 342.02814 357.54688 342.2625Q358.09375 342.4969 358.35938 342.8875Q358.64062 343.2625 358.75 343.79376Q358.82812 344.1375 358.82812 344.98126L358.82812 349.45L357.59375 349.45L357.59375 345.02814Q357.59375 344.27814 357.45312 343.91876Q357.3125 343.54376 356.9375 343.325Q356.57812 343.09064 356.07812 343.09064Q355.29688 343.09064 354.71875 343.59064Q354.15625 344.09064 354.15625 345.48126L354.15625 349.45L352.92188 349.45Z" fill-rule="nonzero"/><path fill="#000000" d="M471.42816 349.45L471.42816 339.4344L472.78754 339.4344L478.05316 347.29376L478.05316 339.4344L479.3344 339.4344L479.3344 349.45L477.97504 349.45L472.7094 341.575L472.7094 349.45L471.42816 349.45ZM480.30316 340.84064L480.30316 339.4344L481.5219 339.4344L481.5219 340.84064L480.30316 340.84064ZM480.30316 349.45L480.30316 342.1844L481.5219 342.1844L481.5219 349.45L480.30316 349.45ZM483.0688 350.0594L484.2563 350.23126Q484.3344 350.77814 484.67816 351.04376Q485.1313 351.3719 485.92816 351.3719Q486.78754 351.3719 487.24066 351.02814Q487.7094 350.7 487.8813 350.075Q487.97504 349.7 487.9594 348.4969Q487.16254 349.45 485.9594 349.45Q484.4594 349.45 483.6313 348.3719Q482.8188 347.29376 482.8188 345.77814Q482.8188 344.7469 483.1938 343.8719Q483.5688 342.98126 484.2719 342.5125Q484.99066 342.02814 485.9594 342.02814Q487.24066 342.02814 488.0844 343.0594L488.0844 342.1844L489.2094 342.1844L489.2094 348.46564Q489.2094 350.16876 488.86566 350.8719Q488.5219 351.575 487.7719 351.98126Q487.0219 352.40314 485.92816 352.40314Q484.6313 352.40314 483.8344 351.8094Q483.03754 351.23126 483.0688 350.0594ZM484.0844 345.6844Q484.0844 347.1219 484.6469 347.77814Q485.2094 348.4344 486.0688 348.4344Q486.91254 348.4344 487.49066 347.77814Q488.0688 347.1219 488.0688 345.73126Q488.0688 344.40314 487.47504 343.73126Q486.8813 343.04376 486.05316 343.04376Q485.22504 343.04376 484.6469 343.71564Q484.0844 344.3719 484.0844 345.6844ZM491.28754 349.45L491.28754 339.4344L492.5219 339.4344L492.5219 343.02814Q493.3813 342.02814 494.6938 342.02814Q495.5063 342.02814 496.10004 342.35626Q496.6938 342.66876 496.9438 343.23126Q497.2094 343.77814 497.2094 344.85626L497.2094 349.45L495.97504 349.45L495.97504 344.85626Q495.97504 343.91876 495.5688 343.5125Q495.17816 343.09064 494.4438 343.09064Q493.8969 343.09064 493.41254 343.3719Q492.92816 343.65314 492.72504 344.1375Q492.5219 344.6219 492.5219 345.48126L492.5219 349.45L491.28754 349.45ZM501.97504 348.35626L502.1469 349.4344Q501.6313 349.54376 501.22504 349.54376Q500.55316 349.54376 500.17816 349.34064Q499.8188 349.1219 499.66254 348.77814Q499.5219 348.4344 499.5219 347.325L499.5219 343.15314L498.61566 343.15314L498.61566 342.1844L499.5219 342.1844L499.5219 340.3875L500.74066 339.65314L500.74066 342.1844L501.97504 342.1844L501.97504 343.15314L500.74066 343.15314L500.74066 347.3875Q500.74066 347.91876 500.80316 348.075Q500.86566 348.21564 501.0063 348.3094Q501.16254 348.40314 501.42816 348.40314Q501.6469 348.40314 501.97504 348.35626Z" fill-rule="nonzero"/><path fill="#000000" d="M215.04688 37.55L211.25 23.2375L213.1875 23.2375L215.35938 32.6125Q215.71875 34.096874 215.96875 35.55Q216.51562 33.253124 216.60938 32.89375L219.34375 23.2375L221.625 23.2375L223.67188 30.471874Q224.45312 33.175 224.79688 35.55Q225.0625 34.190624 225.5 32.425L227.75 23.2375L229.65625 23.2375L225.73438 37.55L223.90625 37.55L220.89062 26.64375Q220.5 25.26875 220.4375 24.95625Q220.20312 25.940624 220.01562 26.64375L216.98438 37.55L215.04688 37.55ZM238.42188 34.20625L240.23438 34.440624Q239.8125 36.01875 238.64062 36.909374Q237.48438 37.784374 235.67188 37.784374Q233.40625 37.784374 232.0625 36.39375Q230.73438 34.9875 230.73438 32.45625Q230.73438 29.83125 232.07812 28.39375Q233.42188 26.940624 235.57812 26.940624Q237.65625 26.940624 238.96875 28.3625Q240.29688 29.76875 240.29688 32.346874Q240.29688 32.503124 240.28125 32.815624L232.54688 32.815624Q232.64062 34.51875 233.51562 35.425Q234.39062 36.33125 235.6875 36.33125Q236.65625 36.33125 237.32812 35.83125Q238.01562 35.315624 238.42188 34.20625ZM232.64062 31.3625L238.4375 31.3625Q238.32812 30.065624 237.78125 29.409374Q236.9375 28.39375 235.59375 28.39375Q234.39062 28.39375 233.5625 29.20625Q232.73438 30.003124 232.64062 31.3625ZM249.09375 36.26875Q248.10938 37.096874 247.20312 37.440624Q246.29688 37.784374 245.26562 37.784374Q243.5625 37.784374 242.64062 36.95625Q241.71875 36.1125 241.71875 34.815624Q241.71875 34.05 242.0625 33.425Q242.42188 32.8 242.98438 32.425Q243.54688 32.034374 244.25 31.83125Q244.76562 31.70625 245.8125 31.565624Q247.9375 31.315624 248.9375 30.971874Q248.95312 30.6125 248.95312 30.503124Q248.95312 29.440624 248.45312 28.9875Q247.78125 28.39375 246.45312 28.39375Q245.20312 28.39375 244.60938 28.83125Q244.03125 29.26875 243.75 30.378124L242.03125 30.14375Q242.26562 29.034374 242.79688 28.3625Q243.32812 27.675 244.34375 27.315624Q245.35938 26.940624 246.70312 26.940624Q248.03125 26.940624 248.85938 27.253124Q249.6875 27.565624 250.07812 28.05Q250.46875 28.51875 250.625 29.2375Q250.71875 29.690624 250.71875 30.8625L250.71875 33.20625Q250.71875 35.659374 250.82812 36.315624Q250.9375 36.95625 251.28125 37.55L249.4375 37.55Q249.17188 37.003124 249.09375 36.26875ZM248.9375 32.346874Q247.98438 32.7375 246.0625 33.003124Q244.98438 33.159374 244.53125 33.3625Q244.09375 33.55 243.84375 33.925Q243.59375 34.3 243.59375 34.76875Q243.59375 35.471874 244.125 35.940624Q244.65625 36.409374 245.6875 36.409374Q246.70312 36.409374 247.48438 35.971874Q248.28125 35.51875 248.65625 34.753124Q248.9375 34.14375 248.9375 32.9875L248.9375 32.346874ZM257.15625 35.971874L257.40625 37.534374Q256.67188 37.690624 256.07812 37.690624Q255.125 37.690624 254.59375 37.39375Q254.07812 37.08125 253.85938 36.596874Q253.64062 36.096874 253.64062 34.51875L253.64062 28.55L252.35938 28.55L252.35938 27.175L253.64062 27.175L253.64062 24.6125L255.39062 23.55L255.39062 27.175L257.15625 27.175L257.15625 28.55L255.39062 28.55L255.39062 34.6125Q255.39062 35.3625 255.48438 35.58125Q255.57812 35.784374 255.78125 35.925Q256.0 36.05 256.39062 36.05Q256.67188 36.05 257.15625 35.971874ZM259.3125 37.55L259.3125 23.2375L261.07812 23.2375L261.07812 28.3625Q262.3125 26.940624 264.1875 26.940624Q265.32812 26.940624 266.17188 27.39375Q267.03125 27.846874 267.39062 28.659374Q267.76562 29.45625 267.76562 30.971874L267.76562 37.55L266.01562 37.55L266.01562 30.971874Q266.01562 29.659374 265.4375 29.065624Q264.85938 28.45625 263.82812 28.45625Q263.04688 28.45625 262.34375 28.8625Q261.65625 29.26875 261.35938 29.971874Q261.07812 30.659374 261.07812 31.878124L261.07812 37.55L259.3125 37.55ZM276.42188 34.20625L278.23438 34.440624Q277.8125 36.01875 276.64062 36.909374Q275.48438 37.784374 273.67188 37.784374Q271.40625 37.784374 270.0625 36.39375Q268.73438 34.9875 268.73438 32.45625Q268.73438 29.83125 270.07812 28.39375Q271.42188 26.940624 273.57812 26.940624Q275.65625 26.940624 276.96875 28.3625Q278.29688 29.76875 278.29688 32.346874Q278.29688 32.503124 278.28125 32.815624L270.54688 32.815624Q270.64062 34.51875 271.51562 35.425Q272.39062 36.33125 273.6875 36.33125Q274.65625 36.33125 275.32812 35.83125Q276.01562 35.315624 276.42188 34.20625ZM270.64062 31.3625L276.4375 31.3625Q276.32812 30.065624 275.78125 29.409374Q274.9375 28.39375 273.59375 28.39375Q272.39062 28.39375 271.5625 29.20625Q270.73438 30.003124 270.64062 31.3625ZM280.29688 37.55L280.29688 27.175L281.875 27.175L281.875 28.753124Q282.48438 27.64375 283.0 27.3Q283.51562 26.940624 284.125 26.940624Q285.01562 26.940624 285.9375 27.503124L285.32812 29.14375Q284.6875 28.753124 284.04688 28.753124Q283.46875 28.753124 283.0 29.1125Q282.54688 29.45625 282.34375 30.065624Q282.0625 31.003124 282.0625 32.1125L282.0625 37.55L280.29688 37.55ZM293.54688 37.55L293.54688 23.2375L298.46875 23.2375Q300.14062 23.2375 301.03125 23.440624Q302.25 23.721874 303.125 24.45625Q304.25 25.425 304.8125 26.909374Q305.375 28.39375 305.375 30.315624Q305.375 31.940624 305.0 33.20625Q304.625 34.45625 304.01562 35.284374Q303.42188 36.1125 302.71875 36.596874Q302.01562 37.065624 301.01562 37.315624Q300.01562 37.55 298.70312 37.55L293.54688 37.55ZM295.4375 35.8625L298.5 35.8625Q299.90625 35.8625 300.70312 35.596874Q301.51562 35.33125 302.0 34.846874Q302.67188 34.175 303.04688 33.05Q303.42188 31.909374 303.42188 30.284374Q303.42188 28.034374 302.6875 26.83125Q301.95312 25.628124 300.89062 25.221874Q300.14062 24.925 298.45312 24.925L295.4375 24.925L295.4375 35.8625ZM307.32812 25.253124L307.32812 23.2375L309.09375 23.2375L309.09375 25.253124L307.32812 25.253124ZM307.32812 37.55L307.32812 27.175L309.09375 27.175L309.09375 37.55L307.32812 37.55ZM310.60938 34.45625L312.35938 34.175Q312.5 35.221874 313.17188 35.784374Q313.84375 36.33125 315.04688 36.33125Q316.25 36.33125 316.82812 35.846874Q317.42188 35.346874 317.42188 34.690624Q317.42188 34.096874 316.90625 33.753124Q316.54688 33.51875 315.10938 33.159374Q313.17188 32.659374 312.42188 32.315624Q311.6875 31.95625 311.29688 31.33125Q310.90625 30.690624 310.90625 29.925Q310.90625 29.2375 311.21875 28.64375Q311.54688 28.05 312.09375 27.659374Q312.5 27.3625 313.20312 27.159374Q313.92188 26.940624 314.73438 26.940624Q315.95312 26.940624 316.875 27.3Q317.79688 27.64375 318.23438 28.253124Q318.67188 28.846874 318.84375 29.846874L317.125 30.08125Q317.0 29.284374 316.4375 28.846874Q315.875 28.39375 314.85938 28.39375Q313.64062 28.39375 313.125 28.8Q312.60938 29.190624 312.60938 29.721874Q312.60938 30.065624 312.82812 30.346874Q313.03125 30.628124 313.5 30.815624Q313.76562 30.909374 315.04688 31.253124Q316.92188 31.753124 317.65625 32.08125Q318.39062 32.39375 318.8125 33.003124Q319.23438 33.596874 319.23438 34.503124Q319.23438 35.378124 318.71875 36.159374Q318.20312 36.940624 317.23438 37.3625Q316.26562 37.784374 315.04688 37.784374Q313.03125 37.784374 311.96875 36.940624Q310.90625 36.096874 310.60938 34.45625ZM325.15625 35.971874L325.40625 37.534374Q324.67188 37.690624 324.07812 37.690624Q323.125 37.690624 322.59375 37.39375Q322.07812 37.08125 321.85938 36.596874Q321.64062 36.096874 321.64062 34.51875L321.64062 28.55L320.35938 28.55L320.35938 27.175L321.64062 27.175L321.64062 24.6125L323.39062 23.55L323.39062 27.175L325.15625 27.175L325.15625 28.55L323.39062 28.55L323.39062 34.6125Q323.39062 35.3625 323.48438 35.58125Q323.57812 35.784374 323.78125 35.925Q324.0 36.05 324.39062 36.05Q324.67188 36.05 325.15625 35.971874ZM327.29688 37.55L327.29688 27.175L328.875 27.175L328.875 28.753124Q329.48438 27.64375 330.0 27.3Q330.51562 26.940624 331.125 26.940624Q332.01562 26.940624 332.9375 27.503124L332.32812 29.14375Q331.6875 28.753124 331.04688 28.753124Q330.46875 28.753124 330.0 29.1125Q329.54688 29.45625 329.34375 30.065624Q329.0625 31.003124 329.0625 32.1125L329.0625 37.55L327.29688 37.55ZM334.32812 25.253124L334.32812 23.2375L336.09375 23.2375L336.09375 25.253124L334.32812 25.253124ZM334.32812 37.55L334.32812 27.175L336.09375 27.175L336.09375 37.55L334.32812 37.55ZM339.9375 37.55L338.3125 37.55L338.3125 23.2375L340.0625 23.2375L340.0625 28.346874Q341.1875 26.940624 342.90625 26.940624Q343.85938 26.940624 344.71875 27.33125Q345.57812 27.721874 346.125 28.425Q346.67188 29.1125 346.98438 30.096874Q347.29688 31.08125 347.29688 32.20625Q347.29688 34.878124 345.98438 36.33125Q344.67188 37.784374 342.82812 37.784374Q340.98438 37.784374 339.9375 36.253124L339.9375 37.55ZM339.92188 32.284374Q339.92188 34.14375 340.42188 34.9875Q341.26562 36.33125 342.67188 36.33125Q343.82812 36.33125 344.65625 35.33125Q345.5 34.33125 345.5 32.346874Q345.5 30.315624 344.6875 29.3625Q343.89062 28.39375 342.75 28.39375Q341.59375 28.39375 340.75 29.39375Q339.92188 30.39375 339.92188 32.284374ZM356.10938 37.55L356.10938 36.01875Q354.90625 37.784374 352.82812 37.784374Q351.90625 37.784374 351.10938 37.440624Q350.3125 37.08125 349.92188 36.55Q349.54688 36.01875 349.39062 35.2375Q349.28125 34.721874 349.28125 33.596874L349.28125 27.175L351.03125 27.175L351.03125 32.925Q351.03125 34.3 351.14062 34.784374Q351.3125 35.471874 351.84375 35.878124Q352.39062 36.26875 353.17188 36.26875Q353.96875 36.26875 354.65625 35.8625Q355.35938 35.45625 355.64062 34.76875Q355.9375 34.065624 355.9375 32.7375L355.9375 27.175L357.6875 27.175L357.6875 37.55L356.10938 37.55ZM363.15625 35.971874L363.40625 37.534374Q362.67188 37.690624 362.07812 37.690624Q361.125 37.690624 360.59375 37.39375Q360.07812 37.08125 359.85938 36.596874Q359.64062 36.096874 359.64062 34.51875L359.64062 28.55L358.35938 28.55L358.35938 27.175L359.64062 27.175L359.64062 24.6125L361.39062 23.55L361.39062 27.175L363.15625 27.175L363.15625 28.55L361.39062 28.55L361.39062 34.6125Q361.39062 35.3625 361.48438 35.58125Q361.57812 35.784374 361.78125 35.925Q362.0 36.05 362.39062 36.05Q362.67188 36.05 363.15625 35.971874ZM365.32812 25.253124L365.32812 23.2375L367.09375 23.2375L367.09375 25.253124L365.32812 25.253124ZM365.32812 37.55L365.32812 27.175L367.09375 27.175L367.09375 37.55L365.32812 37.55ZM368.67188 32.3625Q368.67188 29.4875 370.26562 28.096874Q371.60938 26.940624 373.53125 26.940624Q375.67188 26.940624 377.01562 28.346874Q378.375 29.753124 378.375 32.221874Q378.375 34.221874 377.78125 35.378124Q377.1875 36.51875 376.03125 37.159374Q374.89062 37.784374 373.53125 37.784374Q371.34375 37.784374 370.0 36.39375Q368.67188 34.9875 368.67188 32.3625ZM370.46875 32.3625Q370.46875 34.3625 371.32812 35.346874Q372.20312 36.33125 373.53125 36.33125Q374.84375 36.33125 375.70312 35.346874Q376.57812 34.346874 376.57812 32.3Q376.57812 30.378124 375.70312 29.39375Q374.82812 28.39375 373.53125 28.39375Q372.20312 28.39375 371.32812 29.39375Q370.46875 30.378124 370.46875 32.3625ZM380.3125 37.55L380.3125 27.175L381.90625 27.175L381.90625 28.659374Q383.04688 26.940624 385.20312 26.940624Q386.14062 26.940624 386.92188 27.284374Q387.71875 27.6125 388.10938 28.159374Q388.5 28.70625 388.65625 29.45625Q388.75 29.95625 388.75 31.175L388.75 37.55L386.98438 37.55L386.98438 31.2375Q386.98438 30.159374 386.78125 29.628124Q386.57812 29.096874 386.04688 28.784374Q385.53125 28.471874 384.82812 28.471874Q383.70312 28.471874 382.89062 29.190624Q382.07812 29.89375 382.07812 31.878124L382.07812 37.55L380.3125 37.55Z" fill-rule="nonzero"/></svg>